<?xml version="1.0" encoding="UTF-8" standalone="no"?>
<!DOCTYPE svg PUBLIC "-//W3C//DTD SVG 1.1//EN" "http://www.w3.org/Graphics/SVG/1.1/DTD/svg11.dtd">
<svg width="100%" height="100%" viewBox="0 0 1500 300" version="1.1" xmlns="http://www.w3.org/2000/svg" xmlns:xlink="http://www.w3.org/1999/xlink" xml:space="preserve" xmlns:serif="http://www.serif.com/" style="fill-rule:evenodd;clip-rule:evenodd;stroke-linejoin:round;stroke-miterlimit:2;">
    <g transform="matrix(1,0,0,1,-167.811,-412.5)">
        <g transform="matrix(0.290636,0,-0.0534337,0.236559,177.798,514.383)">
            <rect x="393.826" y="203.404" width="641.427" height="634.09" style="fill:rgb(255,0,0);"/>
        </g>
        <g transform="matrix(0.290636,0,-0.0535566,0.236559,98.2041,364.383)">
            <rect x="393.826" y="203.404" width="641.427" height="634.09" style="fill:rgb(0,255,255);"/>
        </g>
        <g transform="matrix(0.290636,0,-0.0535566,0.236559,138.033,439.383)">
            <rect x="393.826" y="203.404" width="641.427" height="634.09"/>
        </g>
        <g transform="matrix(8.96381,0,0,8.92857,-5361.88,-4311.13)">
            <g>
                <g transform="matrix(1,0,0,1,649.111,554.246)">
                    <g transform="matrix(24,0,0,24,0,0)">
                        <path d="M0.257,-0.517L0.052,-0.517L0.089,-0.7L0.735,-0.7L0.698,-0.517L0.493,-0.517L0.39,-0L0.154,-0L0.257,-0.517Z" style="fill-rule:nonzero;"/>
                    </g>
                    <g transform="matrix(24,0,0,24,15.696,0)">
                        <path d="M0.747,-0.47C0.747,-0.408 0.731,-0.354 0.698,-0.308C0.665,-0.261 0.618,-0.227 0.558,-0.204L0.675,-0L0.43,-0L0.331,-0.176L0.273,-0.176L0.238,-0L0.002,-0L0.142,-0.7L0.456,-0.7C0.548,-0.7 0.619,-0.68 0.671,-0.64C0.721,-0.599 0.747,-0.543 0.747,-0.47ZM0.508,-0.447C0.508,-0.494 0.479,-0.518 0.42,-0.518L0.341,-0.518L0.308,-0.354L0.405,-0.354C0.438,-0.354 0.463,-0.362 0.481,-0.379C0.499,-0.395 0.508,-0.418 0.508,-0.447Z" style="fill-rule:nonzero;"/>
                    </g>
                    <g transform="matrix(24,0,0,24,33.576,0)">
                        <path d="M0.142,-0.7L0.378,-0.7L0.238,-0L0.002,-0L0.142,-0.7Z" style="fill-rule:nonzero;"/>
                    </g>
                    <g transform="matrix(24,0,0,24,41.976,0)">
                        <path d="M0.453,-0.7C0.546,-0.7 0.619,-0.68 0.67,-0.639C0.721,-0.598 0.747,-0.541 0.747,-0.468C0.747,-0.409 0.732,-0.358 0.704,-0.313C0.675,-0.268 0.633,-0.234 0.58,-0.209C0.526,-0.184 0.464,-0.172 0.393,-0.172L0.272,-0.172L0.238,-0L0.002,-0L0.142,-0.7L0.453,-0.7ZM0.405,-0.354C0.438,-0.354 0.463,-0.362 0.481,-0.379C0.499,-0.395 0.508,-0.418 0.508,-0.447C0.508,-0.494 0.479,-0.518 0.42,-0.518L0.341,-0.518L0.308,-0.354L0.405,-0.354Z" style="fill-rule:nonzero;"/>
                    </g>
                </g>
                <g transform="matrix(1,0,0,1,708.679,554.246)">
                    <g transform="matrix(24,0,0,24,0,0)">
                        <path d="M0.142,-0.7L0.378,-0.7L0.275,-0.183L0.591,-0.183L0.554,-0L0.002,-0L0.142,-0.7Z" style="fill-rule:nonzero;"/>
                    </g>
                    <g transform="matrix(24,0,0,24,14.808,0)">
                        <path d="M0.338,-0.522L0.322,-0.44L0.618,-0.44L0.584,-0.27L0.287,-0.27L0.269,-0.178L0.62,-0.178L0.584,-0L0.002,-0L0.142,-0.7L0.711,-0.7L0.675,-0.522L0.338,-0.522Z" style="fill-rule:nonzero;"/>
                    </g>
                    <g transform="matrix(24,0,0,24,30.96,0)">
                        <path d="M0.639,-0.36C0.669,-0.347 0.692,-0.329 0.709,-0.306C0.725,-0.283 0.733,-0.255 0.733,-0.223C0.733,-0.149 0.703,-0.093 0.642,-0.056C0.581,-0.019 0.502,-0 0.406,-0L0.002,-0L0.142,-0.7L0.513,-0.7C0.595,-0.7 0.657,-0.686 0.7,-0.657C0.743,-0.627 0.764,-0.586 0.764,-0.533C0.764,-0.494 0.753,-0.459 0.731,-0.43C0.709,-0.4 0.678,-0.377 0.639,-0.36ZM0.341,-0.535L0.32,-0.431L0.44,-0.431C0.492,-0.431 0.518,-0.451 0.518,-0.492C0.518,-0.506 0.513,-0.517 0.502,-0.524C0.491,-0.531 0.476,-0.535 0.456,-0.535L0.341,-0.535ZM0.419,-0.165C0.443,-0.165 0.462,-0.171 0.477,-0.182C0.492,-0.193 0.499,-0.208 0.499,-0.229C0.499,-0.244 0.494,-0.255 0.483,-0.263C0.472,-0.271 0.458,-0.275 0.441,-0.275L0.289,-0.275L0.267,-0.165L0.419,-0.165Z" style="fill-rule:nonzero;"/>
                    </g>
                    <g transform="matrix(24,0,0,24,49.512,0)">
                        <path d="M0.142,-0.7L0.378,-0.7L0.238,-0L0.002,-0L0.142,-0.7Z" style="fill-rule:nonzero;"/>
                    </g>
                    <g transform="matrix(24,0,0,24,57.912,0)">
                        <path d="M0.257,-0.517L0.052,-0.517L0.089,-0.7L0.735,-0.7L0.698,-0.517L0.493,-0.517L0.39,-0L0.154,-0L0.257,-0.517Z" style="fill-rule:nonzero;"/>
                    </g>
                </g>
            </g>
        </g>
    </g>
</svg>
