<?xml version="1.0" encoding="UTF-8" standalone="no"?>
<!DOCTYPE svg PUBLIC "-//W3C//DTD SVG 1.1//EN" "http://www.w3.org/Graphics/SVG/1.1/DTD/svg11.dtd">
<svg width="100%" height="100%" viewBox="0 0 1600 800" version="1.1" xmlns="http://www.w3.org/2000/svg" xmlns:xlink="http://www.w3.org/1999/xlink" xml:space="preserve" xmlns:serif="http://www.serif.com/" style="fill-rule:evenodd;clip-rule:evenodd;stroke-linejoin:round;stroke-miterlimit:2;">
    <rect x="0" y="0" width="1600" height="800"/>
    <g transform="matrix(0.101454,2.199e-33,2.199e-33,-0.101454,147.727,1057.48)">
        <g transform="matrix(0.87372,-2.04568e-48,-1.23021e-47,0.87372,811.887,814.578)">
            <path d="M6080,10588C5986,10581 5814,10559 5737,10544C5697,10536 5713,10526 5760,10528C5782,10530 5800,10527 5800,10522C5800,10507 5751,10490 5711,10490C5674,10490 5643,10509 5657,10523C5667,10534 5641,10531 5619,10520C5609,10514 5600,10506 5600,10501C5600,10492 5666,10471 5717,10464C5766,10458 5772,10450 5727,10450C5682,10450 5626,10429 5654,10422C5664,10420 5677,10423 5683,10429C5689,10435 5700,10440 5708,10440C5720,10440 5720,10437 5710,10425C5703,10417 5684,10410 5668,10410C5652,10410 5623,10402 5602,10391C5577,10379 5533,10371 5462,10367C5357,10361 5325,10364 5336,10382C5340,10388 5334,10390 5319,10385C5301,10380 5298,10381 5310,10389C5318,10395 5333,10397 5344,10394C5357,10390 5360,10392 5355,10400C5350,10409 5353,10410 5368,10406C5385,10400 5388,10403 5385,10420C5381,10443 5385,10445 5443,10455C5469,10459 5480,10458 5476,10451C5472,10445 5490,10448 5514,10457C5539,10467 5562,10480 5565,10488C5568,10496 5566,10498 5557,10493C5530,10475 5481,10463 5468,10471C5458,10478 5459,10480 5472,10480C5481,10480 5491,10484 5494,10489C5514,10521 4986,10348 4761,10249C3833,9841 3065,9059 2660,8110C2567,7893 2487,7649 2483,7570C2470,7297 2473,7309 2435,7292C2421,7285 2409,7269 2405,7249C2399,7222 2402,7213 2419,7199C2441,7181 2441,7181 2426,7063C2408,6927 2390,6686 2390,6586C2390,6525 2387,6516 2365,6498C2344,6482 2340,6470 2340,6425C2340,6378 2343,6369 2368,6351C2396,6332 2397,6327 2409,6193C2420,6064 2466,5755 2476,5738C2479,5734 2470,5718 2456,5703C2440,5686 2430,5664 2430,5645L2431,5615L2453,5643C2466,5658 2479,5670 2482,5670C2488,5670 2510,5582 2510,5560C2510,5541 2488,5551 2459,5582C2435,5609 2430,5611 2430,5595C2430,5585 2451,5556 2478,5530C2523,5486 2526,5480 2558,5355C2577,5283 2613,5160 2640,5080C2670,4991 2685,4931 2679,4926C2650,4895 2684,4794 2743,4743C2764,4725 2798,4670 2835,4594C2892,4477 3006,4271 3042,4218C3052,4204 3060,4183 3060,4173C3060,4162 3066,4146 3073,4136C3086,4118 3087,4118 3094,4135C3097,4145 3096,4158 3091,4164C3085,4171 3087,4188 3097,4210L3112,4245L3133,4216C3145,4200 3194,4137 3241,4076C3289,4015 3327,3964 3325,3962C3320,3957 3223,4004 3193,4027C3175,4040 3149,4071 3134,4096C3119,4121 3105,4139 3103,4136C3100,4133 3107,4119 3117,4103C3128,4088 3135,4070 3133,4063C3131,4057 3140,4044 3153,4035C3167,4026 3196,3993 3219,3960C3242,3927 3265,3898 3271,3894C3277,3891 3265,3911 3245,3939L3208,3990L3293,3947C3364,3911 3392,3889 3475,3802L3574,3698L3575,3624C3575,3562 3579,3547 3597,3528L3619,3506L3608,3542C3597,3580 3605,3653 3620,3648C3639,3642 3832,3445 3847,3417C3855,3401 3864,3391 3867,3394C3870,3397 3867,3406 3860,3415C3853,3423 3852,3430 3858,3430C3867,3430 3960,3327 3960,3317C3960,3309 3865,3347 3788,3386C3750,3405 3721,3416 3725,3409C3733,3397 3928,3300 3946,3300C3952,3300 3963,3293 3970,3285C3977,3277 3986,3272 3990,3275C3995,3278 4002,3275 4006,3269C4010,3261 4009,3260 4002,3264C3995,3268 3990,3268 3990,3263C3991,3247 4015,3223 4047,3207C4064,3198 4081,3182 4085,3173C4088,3163 4112,3139 4137,3120C4163,3101 4202,3066 4224,3043C4260,3004 4291,2984 4275,3010C4266,3025 4281,3022 4299,3006C4308,2998 4356,2969 4405,2940C4455,2912 4484,2891 4470,2894C4456,2897 4472,2887 4505,2870C4538,2854 4572,2841 4581,2840C4613,2839 4737,2792 4790,2760C4847,2725 5056,2620 5068,2620C5071,2620 5047,2638 5014,2659C4963,2693 4922,2736 4932,2745C4935,2748 4978,2740 5217,2695C5262,2687 5310,2680 5323,2680C5337,2680 5350,2673 5353,2666C5357,2655 5354,2653 5342,2657C5318,2665 5363,2632 5392,2621C5443,2600 5378,2611 5304,2635C5262,2649 5224,2657 5218,2654C5204,2645 5229,2620 5252,2620C5263,2620 5274,2611 5277,2600C5280,2589 5287,2580 5293,2580C5310,2580 5412,2529 5407,2523C5398,2515 5340,2530 5340,2541C5340,2546 5321,2550 5298,2550C5266,2549 5259,2547 5271,2540C5299,2524 5601,2453 5690,2441C5737,2436 5825,2424 5885,2416C5946,2408 6098,2393 6223,2384C6421,2368 6476,2368 6643,2378C6874,2392 7027,2411 7220,2450C7384,2483 7465,2506 7665,2577C7829,2635 7858,2649 7841,2660C7832,2665 7833,2669 7845,2673C7854,2677 7858,2676 7855,2670C7841,2648 7894,2672 8013,2743C8056,2769 8110,2794 8133,2800C8208,2820 8351,2870 8378,2886C8393,2894 8398,2899 8390,2896C8382,2894 8326,2875 8266,2855C8206,2835 8151,2821 8143,2824C8136,2827 8115,2821 8097,2810C8061,2788 8029,2784 8032,2802C8034,2810 8024,2813 8000,2811C7955,2807 7960,2811 8050,2850C8091,2868 8169,2904 8223,2931C8276,2958 8320,2978 8320,2976C8320,2973 8280,2941 8230,2904C8181,2866 8143,2834 8145,2832C8150,2826 8222,2877 8320,2956C8396,3017 8604,3150 8623,3150C8633,3150 8632,3106 8621,3077C8616,3063 8596,3035 8578,3014L8545,2975L8587,3008C8634,3045 8675,3119 8667,3156C8663,3177 8671,3187 8719,3219C8750,3240 8807,3267 8845,3280C8963,3319 9159,3414 9147,3427C9144,3429 9125,3421 9103,3408C9059,3380 8959,3336 8880,3309L8825,3290L8851,3313C8865,3325 8912,3363 8956,3397C8999,3431 9080,3499 9135,3549C9240,3644 9250,3646 9250,3578C9250,3553 9242,3532 9224,3511C9210,3494 9205,3482 9213,3485C9220,3488 9238,3505 9251,3523C9270,3549 9275,3567 9275,3618L9276,3680L9346,3753C9385,3792 9434,3845 9455,3870C9488,3908 9620,3991 9620,3974C9620,3966 9503,3814 9436,3735C9403,3697 9387,3674 9399,3685C9426,3708 9568,3881 9623,3957C9644,3986 9679,4023 9701,4041C9723,4058 9739,4075 9736,4078C9733,4081 9723,4077 9713,4069C9698,4057 9697,4057 9705,4070C9709,4078 9722,4098 9733,4113C9743,4129 9750,4143 9747,4146C9745,4149 9725,4123 9704,4090C9675,4045 9651,4022 9611,3999C9582,3982 9556,3971 9553,3974C9550,3977 9579,4019 9617,4067C9655,4115 9697,4170 9709,4188C9736,4227 9755,4225 9756,4184C9759,4112 9758,4114 9775,4136C9783,4146 9790,4165 9790,4178C9790,4190 9825,4260 9867,4332C9909,4405 9969,4519 10001,4585C10042,4670 10068,4713 10092,4731C10140,4769 10183,4835 10182,4870C10182,4887 10176,4915 10169,4934C10157,4966 10159,4972 10213,5066C10283,5190 10301,5238 10335,5381C10353,5456 10373,5511 10392,5543C10427,5598 10433,5659 10407,5688C10393,5703 10392,5716 10400,5766C10405,5798 10418,5895 10430,5980C10441,6065 10455,6151 10460,6170C10465,6190 10474,6238 10480,6279C10486,6319 10498,6365 10506,6380C10517,6398 10521,6418 10517,6441C10513,6460 10509,6576 10507,6700C10503,6899 10486,7089 10463,7180L10457,7205L10450,7180L10444,7155L10438,7178C10434,7193 10436,7203 10445,7206C10461,7212 10448,7269 10427,7285C10419,7291 10413,7323 10412,7372C10407,7555 10250,8012 10072,8360C9859,8777 9612,9111 9264,9452C8837,9869 8320,10187 7774,10368C7610,10423 7530,10440 7530,10421C7530,10414 7526,10411 7521,10414C7516,10418 7510,10415 7508,10410C7503,10395 7391,10389 7368,10401C7357,10407 7286,10418 7209,10426C7027,10445 7001,10455 7105,10465C7198,10473 7263,10495 7240,10510C7219,10524 7193,10522 7187,10507C7184,10499 7149,10489 7100,10481C7029,10470 7017,10471 7007,10484C7000,10492 6977,10502 6955,10505C6917,10512 6916,10511 6935,10496C6973,10466 6928,10479 6838,10525C6789,10550 6737,10570 6722,10569C6695,10568 6695,10568 6725,10561C6742,10557 6780,10541 6810,10525C6840,10510 6875,10492 6887,10486C6900,10480 6910,10472 6910,10468C6910,10465 6871,10460 6823,10458C6746,10455 6730,10457 6690,10479L6645,10503L6705,10451L6595,10452C6535,10452 6497,10455 6513,10457C6541,10461 6551,10480 6525,10480C6501,10480 6508,10506 6536,10519C6557,10528 6560,10533 6550,10545C6540,10557 6541,10560 6556,10561C6572,10561 6571,10563 6552,10571C6539,10576 6532,10585 6535,10590C6543,10603 6255,10601 6080,10588ZM6475,10470C6478,10465 6472,10460 6461,10460C6449,10460 6440,10465 6440,10470C6440,10476 6446,10480 6454,10480C6462,10480 6472,10476 6475,10470ZM6973,10423C6993,10407 7009,10391 7010,10386C7010,10381 6983,10380 6949,10384C6915,10387 6870,10390 6850,10390C6826,10390 6802,10398 6784,10413L6755,10435L6800,10441C6903,10455 6935,10451 6973,10423ZM7015,10440C7023,10427 7000,10427 6980,10440C6968,10448 6969,10450 6987,10450C6999,10450 7012,10446 7015,10440ZM6757,10415L6785,10389L6725,10394C6633,10402 6611,10402 6529,10395C6463,10389 6452,10390 6446,10405C6443,10414 6442,10426 6446,10431C6449,10436 6514,10440 6590,10440C6725,10440 6730,10439 6757,10415ZM6390,10405C6390,10393 6373,10390 6288,10390C6181,10390 6166,10397 6247,10409C6340,10423 6390,10422 6390,10405ZM6390,10347C6390,10313 6370,10293 6323,10280C6295,10273 6280,10264 6280,10253C6280,10240 6270,10238 6210,10242C6172,10245 6143,10244 6145,10240C6148,10236 6143,10229 6134,10226C6107,10216 6098,10219 6104,10236C6110,10251 6102,10252 6030,10247C5986,10244 5950,10244 5950,10247C5950,10250 5964,10270 5982,10292C6034,10358 6071,10370 6243,10370C6390,10370 6390,10370 6390,10347ZM6749,10366C6740,10358 6600,10353 6600,10362C6600,10366 6634,10370 6677,10370C6719,10370 6751,10368 6749,10366ZM6825,10360C6829,10353 6822,10352 6803,10356C6765,10365 6761,10370 6793,10370C6807,10370 6822,10365 6825,10360ZM6895,10360C6892,10355 6883,10350 6875,10350C6867,10350 6858,10355 6855,10360C6851,10366 6860,10370 6875,10370C6890,10370 6899,10366 6895,10360ZM7016,10355C7005,10347 6987,10340 6975,10340C6963,10340 6945,10347 6934,10355C6917,10368 6920,10369 6975,10369C7030,10369 7033,10368 7016,10355ZM5145,10350C5142,10345 5131,10340 5122,10341C5108,10341 5109,10343 5125,10350C5152,10361 5152,10361 5145,10350ZM6493,10342C6502,10337 6472,10300 6458,10300C6454,10300 6450,10313 6450,10330C6450,10359 6459,10361 6493,10342ZM5527,10330C5529,10305 5521,10303 5335,10291C5188,10282 5158,10283 5196,10296C5206,10299 5224,10305 5235,10310C5318,10344 5339,10347 5440,10349C5519,10350 5526,10348 5527,10330ZM5999,10333C5991,10324 5970,10310 5951,10303C5929,10294 5921,10286 5928,10281C5962,10260 5825,10190 5751,10190C5726,10190 5726,10190 5760,10221C5778,10238 5813,10260 5836,10270C5859,10280 5884,10297 5892,10308C5899,10319 5926,10332 5950,10338C6013,10352 6014,10352 5999,10333ZM6876,10303C6887,10291 6889,10285 6881,10282C6868,10278 6840,10298 6840,10311C6840,10325 6857,10321 6876,10303ZM4935,10290C4932,10285 4922,10280 4914,10280C4906,10280 4902,10285 4905,10290C4908,10296 4918,10300 4926,10300C4934,10300 4938,10296 4935,10290ZM5488,10168C5483,10154 5440,10148 5440,10161C5440,10168 5459,10175 5483,10179C5488,10179 5490,10174 5488,10168ZM5547,10164C5544,10161 5535,10160 5528,10163C5520,10166 5523,10169 5534,10169C5545,10170 5551,10167 5547,10164ZM5625,10150C5620,10135 5623,10130 5636,10130C5650,10130 5651,10127 5642,10118C5635,10111 5630,10102 5630,10098C5630,10086 5701,10100 5728,10118C5740,10126 5760,10130 5772,10127C5786,10123 5801,10127 5812,10137C5822,10146 5830,10150 5830,10146C5830,10135 5769,10047 5752,10033C5732,10017 5500,10015 5500,10030C5500,10036 5507,10043 5515,10046C5523,10050 5530,10058 5530,10065C5530,10085 5600,10170 5616,10170C5627,10170 5629,10164 5625,10150ZM5451,10110L5501,10110L5468,10065C5431,10015 5394,10003 5404,10045C5410,10069 5408,10070 5370,10070C5348,10070 5330,10074 5330,10079C5330,10093 5374,10119 5388,10114C5396,10112 5424,10110 5451,10110ZM5842,10078C5835,10071 5830,10070 5830,10076C5830,10090 5842,10102 5849,10095C5851,10092 5848,10084 5842,10078ZM5730,9996C5730,9993 5707,9948 5678,9896L5627,9800L5358,9800L5385,9848C5400,9874 5426,9916 5442,9942L5472,9989L5553,9993C5598,9994 5656,9997 5683,9998C5709,9999 5730,9998 5730,9996ZM5953,9965C5979,9945 6001,9934 6005,9940C6014,9954 6074,9952 6088,9938C6098,9928 6103,9928 6109,9939C6115,9948 6120,9949 6124,9941C6128,9935 6142,9930 6155,9930C6171,9930 6183,9921 6194,9898C6214,9859 6214,9850 6194,9850C6185,9850 6180,9844 6183,9838C6185,9831 6183,9817 6178,9808C6170,9792 6148,9790 5926,9790C5793,9790 5681,9792 5678,9795C5673,9800 5726,9910 5761,9967C5781,9999 5784,10000 5844,10000C5901,10000 5912,9996 5953,9965ZM6236,9979C6270,9958 6293,9960 6284,9983C6281,9991 6289,9995 6307,9994C6373,9991 6370,9995 6370,9920C6370,9857 6368,9850 6351,9850C6335,9850 6254,9910 6230,9939C6227,9942 6216,9950 6205,9956C6182,9969 6172,10000 6191,10000C6197,10000 6218,9991 6236,9979ZM5351,9898L5293,9805L5174,9809C5108,9810 5049,9817 5043,9822C5015,9845 5043,9919 5074,9907C5082,9904 5102,9905 5118,9910C5135,9914 5152,9914 5157,9909C5162,9904 5175,9909 5189,9922C5204,9935 5224,9943 5245,9942C5265,9941 5291,9950 5312,9964C5330,9978 5359,9989 5377,9989L5409,9990L5351,9898ZM4920,9955C4920,9947 4916,9940 4910,9940C4905,9940 4900,9944 4900,9949C4900,9954 4892,9961 4883,9963C4872,9966 4876,9968 4893,9969C4911,9970 4920,9965 4920,9955ZM4997,9950C4998,9938 4993,9930 4984,9930C4964,9930 4956,9906 4969,9882C4977,9867 4975,9858 4956,9841C4920,9807 4904,9816 4934,9854L4960,9888L4933,9906L4906,9923L4929,9931C4942,9937 4948,9944 4944,9951C4940,9958 4941,9960 4948,9956C4954,9953 4961,9954 4965,9960C4976,9977 4996,9971 4997,9950ZM6604,9913C6608,9909 6652,9906 6703,9905C6794,9905 6796,9905 6865,9861C6985,9785 6995,9790 6712,9790L6460,9790L6464,9898L6499,9892C6522,9889 6531,9890 6526,9898C6517,9913 6590,9927 6604,9913ZM4850,9900C4842,9895 4826,9891 4815,9891C4799,9892 4799,9893 4820,9900C4855,9911 4868,9911 4850,9900ZM4995,9830C4998,9825 4994,9820 4985,9820C4976,9820 4972,9825 4975,9830C4978,9836 4983,9840 4985,9840C4987,9840 4992,9836 4995,9830ZM4805,9763C4783,9748 4735,9713 4698,9686C4662,9658 4624,9630 4613,9623C4598,9613 4609,9611 4673,9611L4750,9610L4714,9558C4649,9464 4662,9470 4521,9470C4408,9471 4397,9472 4414,9485C4425,9493 4444,9500 4456,9500C4468,9500 4483,9507 4490,9515C4497,9523 4499,9530 4494,9530C4490,9530 4491,9535 4498,9542C4528,9572 4505,9568 4460,9536C4427,9512 4399,9500 4377,9500C4320,9500 4301,9542 4342,9580C4361,9597 4361,9600 4346,9600C4320,9600 4335,9617 4367,9623C4411,9632 4437,9655 4422,9672C4413,9683 4414,9691 4425,9707C4438,9726 4452,9729 4552,9732C4651,9735 4672,9738 4720,9762C4750,9777 4791,9789 4810,9790L4845,9790L4805,9763ZM4900,9783C4900,9773 4838,9710 4827,9710C4823,9710 4822,9715 4826,9721C4830,9729 4825,9730 4809,9725C4779,9716 4790,9727 4843,9762C4887,9790 4900,9795 4900,9783ZM5058,9774C5070,9758 5120,9736 5127,9744C5131,9748 5124,9753 5112,9757C5063,9769 5095,9780 5181,9780C5233,9780 5270,9776 5268,9771C5267,9765 5234,9698 5195,9622L5125,9482L4915,9478C4800,9476 4704,9475 4702,9476C4700,9477 4715,9503 4736,9534C4768,9583 4814,9620 4842,9620C4848,9620 4863,9629 4877,9640C4891,9651 4897,9660 4890,9660C4881,9660 4883,9666 4895,9680C4911,9698 4911,9700 4897,9700C4871,9700 4877,9721 4913,9758C4943,9790 4948,9791 4998,9787C5028,9785 5055,9779 5058,9774ZM5610,9766C5610,9764 5590,9719 5566,9667C5541,9614 5516,9553 5509,9530L5497,9490L5430,9490C5393,9490 5329,9487 5287,9484C5231,9479 5210,9480 5210,9489C5210,9495 5239,9561 5274,9635L5339,9770L5474,9770C5549,9770 5610,9768 5610,9766ZM6033,9760C6203,9760 6211,9759 6205,9741C6201,9727 6206,9721 6230,9717C6252,9712 6260,9705 6260,9690C6260,9677 6270,9666 6285,9660C6300,9654 6310,9643 6310,9631C6310,9620 6321,9603 6335,9592C6354,9577 6360,9563 6360,9531L6360,9490L5955,9490C5732,9490 5550,9493 5550,9496C5550,9505 5600,9630 5633,9704L5664,9773L5760,9766C5812,9763 5935,9760 6033,9760ZM7062,9742C7072,9732 7070,9728 7052,9724C7040,9720 7030,9711 7030,9703C7030,9695 7026,9691 7021,9694C7016,9698 7010,9695 7008,9688C7005,9680 6994,9682 6972,9695C6941,9713 6940,9713 6919,9694C6895,9673 6861,9674 6843,9697C6834,9708 6832,9692 6832,9622C6832,9478 6848,9489 6647,9492L6475,9495L6469,9761L6759,9758C6978,9756 7052,9752 7062,9742ZM4355,9679C4346,9666 4239,9618 4232,9625C4228,9629 4347,9690 4358,9690C4360,9690 4358,9685 4355,9679ZM6931,9579C6940,9566 6951,9540 6954,9523C6959,9492 6958,9490 6930,9490C6899,9490 6900,9488 6884,9568C6874,9615 6901,9622 6931,9579ZM4275,9470C4264,9465 4246,9461 4235,9461C4218,9460 4218,9462 4230,9470C4238,9475 4256,9479 4270,9479C4293,9479 4293,9478 4275,9470ZM6358,9385L6355,9309L5926,9310C5689,9310 5494,9312 5492,9315C5488,9319 5517,9414 5532,9443C5540,9459 5570,9460 5951,9460L6361,9460L6358,9385ZM6894,9444C6897,9436 6893,9416 6885,9400C6871,9373 6871,9371 6886,9377C6897,9381 6909,9376 6918,9364C6931,9346 6932,9347 6927,9376C6924,9394 6918,9419 6914,9434C6908,9459 6910,9460 6947,9460C6982,9460 6993,9453 7059,9385L7132,9311L6914,9310C6793,9310 6646,9309 6585,9309L6475,9308L6472,9384L6470,9460L6679,9460C6859,9460 6889,9458 6894,9444ZM5094,9413C5085,9392 5074,9363 5068,9348L5058,9320L4847,9321C4730,9321 4627,9325 4617,9328C4602,9335 4604,9341 4635,9387L4670,9439L4763,9443C4813,9444 4912,9447 4983,9448L5110,9450L5094,9413ZM5466,9423C5462,9407 5452,9376 5443,9353L5427,9310L5138,9310L5144,9333C5147,9346 5159,9377 5170,9403L5191,9450L5472,9450L5466,9423ZM4620,9433C4620,9430 4606,9405 4589,9378L4558,9330L4481,9330C4321,9330 4129,9343 4133,9354C4135,9359 4161,9378 4191,9394C4238,9420 4259,9425 4350,9430C4507,9439 4620,9441 4620,9433ZM4130,9413C4130,9409 4117,9391 4102,9373C4076,9342 4074,9341 4015,9348C3949,9356 3948,9355 4035,9400C4068,9417 4130,9425 4130,9413ZM4050,9315C4050,9312 4008,9245 3956,9167C3872,9038 3839,8985 3756,8838L3729,8790L3529,8790L3546,8823C3571,8870 3721,9094 3782,9175C3820,9225 3844,9248 3868,9255C3887,9260 3900,9271 3900,9280C3900,9309 3923,9320 3987,9320C4022,9320 4050,9318 4050,9315ZM4528,9295C4530,9293 4507,9247 4476,9193C4445,9139 4385,9026 4344,8943L4269,8790L4030,8790C3898,8790 3790,8792 3790,8794C3790,8813 3988,9144 4064,9254L4105,9312L4315,9305C4431,9301 4527,9297 4528,9295ZM5037,9286C5038,9285 5025,9248 5008,9204C4991,9161 4952,9051 4921,8960L4865,8795L4598,8792C4373,8790 4330,8792 4330,8804C4330,8833 4530,9232 4572,9286C4578,9295 4643,9297 4808,9293C4933,9290 5036,9287 5037,9286ZM5372,9280C5419,9280 5419,9280 5409,9253C5393,9209 5334,9002 5309,8898L5285,8800L5220,8799C5184,8798 5112,8797 5060,8796L4965,8795L4968,8820C4973,8856 5096,9223 5115,9261L5132,9293L5229,9286C5282,9283 5346,9280 5372,9280ZM6351,9276C6353,9274 6354,9166 6352,9036L6349,8800L5350,8800L5356,8828C5361,8850 5414,9054 5462,9238L5473,9280L5910,9280C6150,9280 6349,9278 6351,9276ZM6890,9271C6890,9261 6843,9247 6832,9254C6828,9256 6823,9248 6822,9234C6821,9221 6826,9210 6833,9209C6868,9207 6886,9199 6899,9181C6911,9162 6914,9162 6940,9175C6962,9186 6989,9188 7029,9181C7031,9180 7028,9174 7022,9167C7014,9158 7016,9151 7028,9143C7043,9134 7045,9136 7045,9155C7043,9185 7016,9222 6999,9215C6986,9211 6960,9249 6960,9272C6960,9276 7009,9280 7068,9280C7166,9280 7179,9278 7196,9259C7219,9233 7282,9200 7308,9200C7318,9200 7331,9205 7337,9211C7353,9227 7439,9174 7451,9141C7460,9118 7520,8893 7534,8828C7540,8801 7539,8800 7495,8800C7470,8800 7439,8807 7426,8816C7413,8824 7375,8832 7342,8834C7289,8837 7278,8841 7257,8866C7244,8882 7231,8903 7227,8913C7224,8922 7216,8930 7211,8930C7205,8930 7203,8923 7206,8915C7213,8897 7202,8896 7174,8913C7113,8949 7060,9017 7060,9061C7059,9091 7035,9126 7025,9110C7022,9105 7015,9102 7010,9105C7006,9107 6997,9096 6989,9079C6978,9052 6979,9043 6995,9014C7004,8996 7019,8979 7026,8976C7034,8973 7040,8958 7040,8942C7040,8927 7045,8909 7050,8904C7056,8898 7062,8882 7064,8869C7068,8833 7081,8810 7097,8810C7105,8810 7108,8814 7105,8820C7102,8826 7106,8827 7114,8824C7164,8805 7100,8800 6805,8800L6481,8800L6478,9036C6476,9166 6477,9274 6479,9276C6487,9284 6890,9279 6890,9271ZM3780,9220C3760,9207 3747,9207 3755,9220C3758,9226 3769,9230 3778,9230C3793,9230 3793,9228 3780,9220ZM3724,9148C3689,9099 3518,8845 3495,8806C3482,8785 3325,8769 3332,8790C3334,8797 3351,8811 3370,8821C3389,8831 3408,8846 3412,8855C3417,8863 3429,8870 3439,8870C3453,8870 3465,8887 3483,8933C3497,8967 3512,8995 3518,8995C3524,8995 3532,8999 3537,9004C3542,9010 3539,9010 3531,9005C3520,8999 3518,9001 3523,9014C3527,9024 3530,9036 3530,9041C3530,9046 3535,9050 3541,9050C3547,9050 3549,9043 3546,9034C3534,9003 3582,9043 3600,9078C3608,9095 3623,9110 3632,9110C3641,9110 3666,9130 3687,9155C3708,9179 3733,9199 3743,9200C3759,9200 3755,9191 3724,9148ZM7579,9041C7587,9027 7586,9019 7575,9010C7567,9003 7560,9001 7560,9006C7560,9011 7557,9025 7554,9038C7546,9065 7565,9068 7579,9041ZM7783,8971C7800,8930 7830,8820 7830,8801C7830,8793 7812,8792 7773,8796C7706,8804 7670,8831 7670,8871C7670,8886 7666,8902 7660,8905C7642,8916 7650,8940 7674,8946C7702,8953 7715,8976 7697,8987C7689,8992 7694,8997 7710,9001C7758,9015 7768,9011 7783,8971ZM7923,8949C7919,8934 7914,8932 7906,8940C7898,8948 7899,8953 7910,8960C7918,8965 7926,8970 7927,8970C7927,8970 7926,8961 7923,8949ZM3440,8721C3440,8716 3405,8643 3362,8559C3304,8444 3200,8204 3165,8103C3164,8102 3127,8098 3081,8094L2997,8087L3004,8113C3024,8197 3024,8197 3007,8175C2998,8164 2990,8141 2990,8124C2990,8093 2989,8093 2929,8086C2857,8079 2780,8078 2780,8085C2780,8095 2863,8276 2918,8386C2952,8452 2988,8511 3001,8518C3022,8532 3023,8531 3017,8492C3013,8471 2999,8428 2985,8397C2960,8344 2925,8192 2934,8182C2947,8170 3003,8284 3040,8398C3091,8551 3127,8617 3199,8681L3254,8730L3347,8730C3398,8730 3440,8726 3440,8721ZM3690,8715C3690,8712 3674,8677 3654,8637C3605,8542 3501,8296 3465,8194L3436,8112L3386,8106C3322,8099 3210,8098 3210,8106C3210,8125 3353,8458 3413,8577L3485,8720L3587,8720C3644,8720 3690,8718 3690,8715ZM4235,8703C4187,8582 4131,8420 4091,8288L4042,8125L3775,8117C3628,8112 3506,8110 3504,8113C3494,8123 3613,8425 3714,8643L3749,8720L3996,8720C4226,8720 4242,8719 4235,8703ZM4840,8714C4840,8711 4825,8651 4806,8581C4776,8470 4723,8252 4705,8164L4699,8133L4402,8128C4239,8125 4103,8124 4101,8126C4091,8136 4203,8491 4280,8695L4290,8720L4565,8720C4716,8720 4840,8717 4840,8714ZM5260,8705C5260,8696 5251,8648 5241,8597C5215,8474 5194,8353 5180,8250C5173,8203 5166,8160 5165,8154C5162,8143 5007,8130 4873,8130C4802,8130 4800,8131 4805,8153C4807,8165 4826,8249 4845,8340C4876,8480 4920,8662 4935,8708C4938,8717 4980,8720 5100,8720C5236,8720 5260,8718 5260,8705ZM6345,8593C6344,8522 6343,8392 6342,8303L6340,8140L5790,8140C5263,8140 5240,8141 5240,8158C5240,8189 5277,8424 5315,8630C5323,8677 5330,8716 5330,8718C5330,8719 5559,8720 5839,8720L6347,8720L6345,8593ZM7420,8705C7427,8697 7436,8690 7441,8690C7446,8690 7450,8697 7450,8705C7450,8713 7457,8720 7466,8720C7476,8720 7480,8714 7477,8706C7474,8698 7478,8686 7486,8680C7494,8673 7500,8662 7500,8655C7500,8649 7509,8633 7520,8620C7533,8605 7540,8602 7540,8611C7540,8622 7542,8622 7550,8610C7557,8599 7560,8603 7560,8629C7560,8688 7572,8655 7595,8535L7617,8419L7592,8400C7578,8389 7549,8377 7528,8373C7486,8367 7467,8346 7454,8297C7450,8278 7436,8263 7414,8253C7387,8240 7379,8228 7369,8188L7356,8140L6490,8140L6490,8188C6490,8214 6487,8344 6484,8478L6478,8720L6943,8720C7344,8720 7409,8718 7420,8705ZM7702,8685C7700,8669 7694,8651 7689,8646C7674,8630 7678,8563 7695,8556C7713,8549 7714,8530 7697,8506C7686,8490 7681,8501 7662,8593C7634,8726 7634,8722 7673,8718C7702,8715 7705,8712 7702,8685ZM2951,8511C2934,8490 2922,8466 2925,8458C2928,8451 2921,8432 2909,8415C2893,8391 2890,8389 2895,8408C2905,8443 2894,8434 2861,8380C2826,8324 2811,8313 2836,8363C2855,8400 2925,8506 2948,8533C2978,8568 2981,8549 2951,8511ZM2810,8209C2764,8104 2746,8074 2729,8072C2711,8069 2709,8072 2715,8092C2733,8150 2856,8357 2867,8347C2869,8345 2843,8283 2810,8209ZM2734,8176C2715,8135 2700,8097 2700,8092C2700,8079 2671,8056 2664,8063C2655,8071 2753,8250 2766,8250C2767,8250 2753,8217 2734,8176ZM10003,8198C10012,8177 10017,8160 10015,8160C10008,8160 9980,8218 9980,8231C9980,8249 9986,8240 10003,8198ZM10107,8073C10096,8063 10081,8081 10056,8136C10042,8167 10030,8195 10030,8197C10030,8200 10049,8175 10071,8141C10094,8107 10110,8077 10107,8073ZM5153,8080C5152,8072 5149,8044 5145,8018L5139,7970L4960,7970C4862,7970 4779,7973 4777,7978C4775,7982 4778,8008 4782,8037L4791,8089L4858,8093C4895,8095 4977,8096 5040,8096C5136,8095 5155,8093 5153,8080ZM6338,8033L6335,7965L6168,7965C6075,7965 5825,7966 5610,7968L5220,7970L5220,7998C5220,8013 5223,8042 5226,8063L5233,8100L6341,8100L6338,8033ZM7330,8092C7330,8088 7322,8080 7312,8074C7302,8067 7288,8043 7280,8020C7272,7997 7261,7976 7256,7975C7250,7973 7075,7969 6868,7966L6490,7960L6490,8100L6910,8100C7141,8100 7330,8097 7330,8092ZM4683,8058C4680,8040 4674,8014 4670,8001L4664,7978L4370,7979C4209,7980 4073,7983 4069,7986C4065,7988 4067,8005 4072,8023C4078,8040 4085,8061 4086,8068C4089,8078 4106,8081 4145,8079C4175,8078 4203,8079 4207,8083C4210,8087 4320,8090 4451,8090L4690,8090L4683,8058ZM4025,8048C4012,7986 4019,7988 3814,7989C3710,7990 3588,7993 3544,7996L3463,8003L3483,8069L3619,8073C3694,8074 3817,8077 3893,8078L4032,8080L4025,8048ZM3408,8028L3397,7997L3292,8003C3235,8006 3186,8011 3183,8014C3180,8016 3183,8028 3189,8039C3199,8057 3211,8060 3303,8062C3359,8064 3408,8064 3412,8062C3416,8061 3414,8046 3408,8028ZM3143,8029C3137,8008 3134,8008 3021,8015C2957,8019 2901,8025 2895,8028C2878,8039 2940,8048 3047,8049C3145,8050 3148,8049 3143,8029ZM2652,7995C2661,7986 2584,7783 2561,7754C2542,7730 2540,7729 2540,7748C2540,7765 2585,7894 2620,7978C2629,7999 2641,8006 2652,7995ZM2710,7978C2710,7957 2696,7943 2678,7943C2659,7943 2657,7949 2666,7974C2673,7993 2710,7996 2710,7978ZM10215,7863C10271,7754 10299,7676 10336,7522C10354,7444 10328,7471 10300,7558C10288,7595 10258,7666 10234,7715C10181,7825 10121,7978 10128,7985C10141,7998 10156,7977 10215,7863ZM2754,7968C2749,7959 2752,7960 2763,7969C2802,8000 2909,7945 2895,7901C2892,7891 2896,7877 2905,7870C2924,7854 2924,7841 2905,7820C2891,7804 2894,7803 2942,7805C3018,7809 3020,7809 3020,7820C3020,7826 3011,7839 2999,7851C2988,7862 2981,7874 2984,7877C2987,7880 2980,7890 2970,7899C2959,7908 2949,7926 2948,7940L2945,7965L3025,7961C3069,7959 3107,7956 3108,7955C3118,7946 3097,7890 3084,7890C3076,7890 3070,7885 3070,7879C3070,7874 3075,7872 3081,7876C3100,7887 3080,7817 3060,7799C3047,7788 3044,7780 3051,7773C3058,7766 3058,7749 3049,7722C3038,7685 3035,7682 3013,7691C2985,7702 2969,7695 2976,7676C2979,7668 2991,7665 3006,7668C3036,7673 3036,7664 3011,7545C3001,7495 2989,7439 2986,7419L2980,7382L2902,7375C2860,7371 2780,7362 2725,7354C2580,7334 2587,7333 2606,7378C2627,7426 2628,7511 2607,7524C2590,7535 2601,7580 2677,7809C2725,7955 2736,7980 2751,7980C2757,7980 2758,7974 2754,7968ZM3377,7946C3377,7946 3361,7884 3339,7810C3318,7736 3287,7617 3271,7546C3255,7476 3238,7414 3233,7410C3220,7397 3030,7386 3030,7399C3030,7405 3039,7455 3050,7510C3069,7613 3099,7670 3130,7668C3138,7667 3152,7670 3161,7674C3169,7678 3189,7676 3204,7671C3240,7657 3253,7685 3222,7710C3210,7720 3204,7730 3207,7734C3211,7737 3208,7740 3202,7740C3195,7740 3190,7745 3190,7751C3190,7768 3158,7789 3133,7790L3112,7790L3131,7852C3141,7887 3154,7916 3159,7918C3164,7920 3166,7930 3163,7940C3158,7958 3163,7959 3266,7953C3326,7950 3376,7947 3377,7946ZM3834,7936C3936,7933 3944,7931 3967,7906C3980,7892 3989,7876 3986,7872C3981,7863 3936,7602 3923,7505L3915,7445L3795,7438C3729,7434 3595,7426 3496,7420C3398,7414 3315,7411 3313,7414C3307,7420 3348,7610 3360,7632C3366,7642 3370,7659 3370,7670C3370,7692 3428,7907 3441,7931C3450,7948 3472,7948 3834,7936ZM4476,7924L4656,7917L4629,7756C4614,7667 4598,7567 4595,7533L4588,7472L4521,7466C4485,7463 4346,7457 4212,7454L3969,7447L3974,7481C3977,7500 3991,7585 4004,7670C4018,7755 4034,7849 4040,7878L4052,7930L4174,7930C4242,7930 4378,7927 4476,7924ZM5127,7853C5123,7815 5115,7717 5108,7634L5096,7483L4903,7475C4796,7471 4706,7471 4702,7474C4697,7480 4729,7730 4752,7863L4762,7920L5133,7920L5127,7853ZM5848,7910L6340,7910L6340,7705C6340,7549 6337,7498 6328,7495C6321,7493 6057,7489 5742,7487L5170,7482L5174,7514C5177,7531 5184,7619 5191,7710C5198,7801 5207,7886 5212,7899C5220,7922 5223,7923 5288,7916C5325,7913 5577,7910 5848,7910ZM7205,7865C7202,7840 7202,7821 7207,7822C7211,7823 7231,7810 7250,7792C7280,7764 7283,7757 7272,7740C7258,7716 7256,7680 7270,7680C7284,7680 7310,7613 7310,7574C7310,7556 7306,7530 7300,7516L7290,7490L6905,7490C6583,7490 6516,7492 6504,7504C6493,7516 6490,7558 6490,7714L6490,7910L7212,7910L7205,7865ZM2635,7748C2611,7675 2587,7596 2580,7572C2572,7540 2565,7530 2552,7532C2531,7537 2528,7526 2596,7705C2646,7837 2665,7880 2675,7880C2677,7880 2659,7820 2635,7748ZM10394,7370L10400,7335L10386,7370C10379,7389 10370,7423 10367,7445L10361,7485L10374,7445C10381,7423 10390,7389 10394,7370ZM6333,7428C6336,7416 6336,7324 6333,7224L6327,7041L5766,7046C5457,7049 5195,7053 5183,7056C5161,7060 5160,7064 5160,7168C5160,7227 5163,7312 5167,7357L5173,7440L5329,7443C5415,7444 5675,7447 5906,7448L6328,7450L6333,7428ZM7280,7420C7280,7400 7269,7377 7245,7351L7210,7313L7231,7294C7261,7267 7283,7221 7273,7207C7268,7200 7265,7179 7266,7160C7267,7141 7268,7113 7269,7099C7270,7083 7278,7069 7293,7062C7310,7054 7265,7051 7110,7051C6997,7050 6812,7047 6698,7043L6490,7037L6490,7450L7280,7450L7280,7420ZM5087,7318C5083,7252 5080,7166 5080,7128L5080,7060L4926,7060C4842,7060 4746,7063 4713,7066L4654,7072L4667,7204C4674,7276 4682,7356 4686,7382L4692,7429L4813,7433C4880,7434 4971,7437 5014,7438L5093,7440L5087,7318ZM4564,7275C4556,7198 4547,7120 4544,7101L4539,7068L4397,7074C4319,7077 4184,7083 4097,7086L3939,7092L3946,7179C3964,7404 3961,7393 4000,7402C4042,7411 4562,7428 4572,7420C4576,7417 4572,7352 4564,7275ZM3906,7358C3903,7334 3898,7279 3895,7235C3892,7191 3887,7142 3885,7125L3880,7095L3813,7098C3639,7105 3267,7130 3263,7134C3257,7139 3291,7346 3300,7359C3304,7367 3702,7395 3859,7399L3912,7400L3906,7358ZM3230,7356C3230,7350 3200,7189 3194,7162C3190,7141 3185,7139 3128,7142C3071,7145 3065,7147 3059,7170L3052,7195L3045,7173C3041,7160 3030,7150 3019,7150C2996,7150 2994,7181 3011,7277C3023,7347 3023,7347 3115,7353C3212,7359 3230,7360 3230,7356ZM2504,7326C2498,7310 2480,7303 2480,7318C2480,7328 2502,7351 2507,7346C2509,7344 2508,7335 2504,7326ZM2970,7323C2970,7284 2946,7174 2936,7167C2924,7158 2844,7164 2690,7186C2552,7205 2560,7201 2572,7248C2580,7282 2587,7289 2613,7294C2648,7300 2854,7327 2910,7333C2929,7335 2951,7338 2958,7338C2964,7339 2970,7332 2970,7323ZM2500,7245C2500,7219 2486,7212 2475,7230C2466,7244 2476,7270 2490,7270C2495,7270 2500,7259 2500,7245ZM2490,7165C2490,7164 2485,7139 2480,7109C2462,7013 2440,6808 2433,6668C2430,6587 2423,6530 2417,6530C2404,6530 2415,6805 2435,6990C2454,7164 2458,7180 2476,7173C2484,7170 2490,7167 2490,7165ZM2690,7133C2759,7124 2817,7115 2819,7114C2820,7112 2815,7101 2806,7088C2797,7076 2790,7054 2790,7040C2790,7025 2778,6999 2763,6981C2747,6963 2732,6938 2729,6926C2725,6909 2720,6915 2707,6955C2684,7023 2662,7036 2626,7003C2611,6990 2594,6980 2588,6982C2567,6989 2538,7150 2558,7150C2562,7150 2621,7143 2690,7133ZM2529,7002C2530,6983 2538,6963 2550,6953C2561,6943 2570,6931 2570,6925C2570,6908 2594,6860 2603,6860C2607,6860 2610,6876 2610,6895C2610,6929 2634,6980 2650,6980C2662,6980 2681,6928 2675,6909C2672,6899 2674,6872 2680,6849C2688,6821 2689,6771 2685,6704L2678,6601L2626,6590C2598,6584 2546,6571 2511,6560L2447,6541L2454,6653C2464,6828 2491,7054 2503,7069C2513,7080 2516,7078 2521,7059C2525,7046 2528,7020 2529,7002ZM3180,7065C3180,7055 3170,7050 3150,7050C3130,7050 3120,7055 3120,7065C3120,7075 3130,7080 3150,7080C3170,7080 3180,7075 3180,7065ZM3744,7045L3883,7038L3877,6892C3873,6813 3869,6745 3867,6743C3864,6741 3825,6737 3778,6733L3694,6727L3669,6766C3656,6787 3641,6812 3635,6822C3630,6832 3620,6840 3614,6840C3607,6840 3586,6864 3567,6893C3528,6950 3497,6980 3476,6980C3457,6980 3426,7017 3439,7025C3445,7028 3450,7035 3450,7041C3450,7052 3366,7041 3362,7028C3360,7024 3350,7020 3340,7020C3330,7020 3318,7016 3315,7010C3306,6996 3277,6998 3256,7013C3243,7023 3241,7031 3248,7050L3258,7075L3431,7064C3527,7058 3668,7049 3744,7045ZM4297,7021C4425,7017 4532,7011 4534,7009C4538,7004 4521,6787 4515,6782C4512,6779 4335,6768 4063,6754L3930,6747L3930,6832C3930,6879 3933,6944 3936,6976L3942,7036L4004,7033C4037,7031 4170,7026 4297,7021ZM5017,7000L5080,7000L5080,6931C5080,6893 5077,6849 5074,6832L5068,6802L4921,6796C4841,6792 4744,6789 4706,6787L4636,6785L4638,6845C4640,6878 4643,6929 4647,6959L4653,7013L4803,7007C4886,7003 4982,7000 5017,7000ZM5882,6990L6330,6990L6330,6823L5803,6814C5512,6810 5248,6806 5215,6805L5155,6805L5152,6889C5150,6935 5152,6980 5155,6988C5160,7001 5181,7002 5297,6997C5372,6993 5635,6990 5882,6990ZM7471,6953C7489,6935 7509,6920 7514,6920C7537,6920 7615,6817 7599,6807C7597,6806 7471,6808 7320,6811C7169,6815 6920,6818 6768,6819L6490,6820L6490,6991L6964,6988L7437,6985L7471,6953ZM6330,6572C6330,6431 6327,6371 6318,6362C6309,6353 6309,6350 6318,6350C6327,6350 6330,6320 6330,6246L6330,6143L6263,6137C6225,6133 6169,6130 6136,6130C6088,6130 6079,6133 6084,6145C6087,6153 6086,6160 6081,6160C6076,6160 6067,6153 6060,6145C6050,6133 6015,6130 5866,6130C5767,6129 5573,6125 5435,6120C5261,6114 5183,6115 5179,6122C5172,6132 5162,6383 5157,6640L5155,6755L5360,6760C5473,6763 5737,6767 5948,6768L6330,6770L6330,6572ZM7367,6763C7562,6758 7597,6755 7582,6744C7573,6737 7557,6730 7548,6730C7530,6730 7525,6715 7529,6671C7531,6646 7484,6570 7466,6570C7460,6570 7444,6586 7430,6605C7416,6624 7401,6640 7395,6640C7390,6640 7376,6652 7364,6667L7342,6694L7289,6667C7259,6652 7227,6640 7218,6640C7208,6640 7171,6627 7135,6610C7099,6594 7064,6580 7057,6580C7050,6580 7033,6572 7020,6563C7006,6553 6994,6547 6992,6548C6984,6556 6920,6495 6920,6480C6920,6462 6871,6430 6844,6430C6832,6430 6810,6401 6810,6386C6810,6383 6819,6380 6830,6380C6859,6380 6855,6346 6823,6318C6807,6306 6789,6283 6783,6268C6775,6250 6763,6240 6750,6240C6737,6240 6732,6236 6735,6229C6739,6223 6733,6216 6721,6213C6709,6210 6700,6201 6700,6194C6700,6186 6693,6177 6685,6174C6661,6164 6668,6147 6693,6155C6705,6158 6737,6166 6764,6171C6813,6181 6842,6206 6881,6270C6890,6285 6913,6301 6936,6308C6968,6318 6977,6317 6992,6303C7002,6294 7010,6281 7010,6273C7010,6252 7071,6220 7112,6220C7132,6220 7152,6215 7156,6209C7160,6202 7168,6211 7177,6231C7198,6281 7247,6303 7271,6274C7284,6259 7360,6255 7360,6269C7360,6274 7343,6293 7323,6311C7285,6344 7279,6369 7303,6399C7309,6406 7319,6422 7325,6434C7336,6457 7424,6509 7452,6510C7461,6510 7486,6521 7506,6535C7548,6564 7560,6566 7560,6545C7560,6537 7567,6530 7575,6530C7584,6530 7590,6540 7590,6556C7590,6573 7596,6584 7610,6587C7633,6593 7637,6610 7616,6610C7609,6610 7589,6617 7574,6625L7545,6640L7587,6640C7618,6640 7632,6645 7639,6659C7651,6680 7693,6694 7721,6685C7736,6680 7740,6669 7740,6634C7740,6602 7736,6590 7725,6590C7710,6590 7685,6552 7694,6543C7697,6540 7706,6543 7715,6550C7724,6557 7733,6560 7737,6557C7743,6550 7723,6120 7716,6113C7714,6111 7583,6114 7424,6120C7265,6125 7041,6130 6925,6130C6810,6130 6664,6133 6603,6137L6490,6143L6490,6770L6813,6770C6990,6770 7240,6767 7367,6763ZM5081,6495C5085,6358 5091,6215 5095,6177L5101,6108L4903,6114C4794,6118 4686,6123 4663,6126L4620,6131L4621,6363C4622,6491 4625,6627 4629,6665L4635,6735L4750,6741C4813,6744 4912,6746 4970,6746L5075,6745L5081,6495ZM4516,6678C4513,6649 4508,6514 4504,6378C4498,6152 4496,6130 4480,6130C4442,6130 4400,6143 4400,6155C4400,6170 4376,6223 4352,6264C4342,6281 4318,6302 4300,6313C4281,6323 4264,6336 4262,6341C4260,6346 4250,6350 4240,6350C4216,6350 4190,6392 4190,6430C4190,6449 4182,6468 4168,6481C4122,6521 4030,6590 4021,6590C4016,6590 3993,6602 3971,6617C3930,6644 3915,6685 3943,6695C3956,6700 4377,6727 4469,6729L4522,6730L4516,6678ZM3877,6674C3892,6635 3820,6620 3770,6652L3735,6674L3765,6681C3822,6694 3870,6691 3877,6674ZM8960,6648C8960,6622 8925,6560 8911,6560C8896,6560 8888,6528 8884,6436C8880,6357 8881,6348 8895,6360C8903,6367 8910,6368 8910,6362C8910,6357 8918,6353 8928,6354C8943,6355 8945,6346 8942,6270C8940,6223 8933,6180 8927,6174C8917,6165 8401,6129 8293,6130C8258,6130 8261,6183 8298,6216C8314,6231 8319,6240 8310,6239C8270,6235 8270,6236 8270,6379C8270,6536 8261,6521 8363,6535C8408,6542 8410,6541 8410,6519C8410,6501 8413,6499 8419,6509C8426,6520 8433,6519 8458,6502C8487,6481 8488,6481 8493,6500C8497,6517 8505,6519 8559,6516C8606,6513 8620,6515 8620,6526C8620,6534 8630,6540 8644,6540C8675,6540 8700,6550 8700,6562C8700,6577 8727,6600 8746,6600C8756,6600 8773,6609 8784,6619C8800,6634 8898,6663 8953,6669C8957,6670 8960,6660 8960,6648ZM7877,6586C7881,6580 7884,6566 7885,6555C7885,6539 7891,6536 7914,6538C7929,6540 7950,6535 7959,6527C7968,6519 7999,6500 8028,6486C8061,6469 8080,6454 8077,6446C8071,6430 8090,6400 8096,6416C8106,6439 8126,6458 8148,6465C8170,6471 8170,6471 8170,6351L8170,6230L8131,6230C8109,6230 8088,6235 8085,6240C8082,6246 8074,6250 8069,6250C8046,6250 8090,6221 8129,6210C8170,6199 8171,6198 8168,6162L8165,6125L8100,6125C8041,6125 8035,6127 8032,6147C8027,6180 7952,6236 7902,6244C7850,6252 7853,6242 7912,6213C7936,6201 7967,6175 7982,6157L8009,6123L7957,6116C7928,6113 7884,6110 7858,6110C7801,6110 7805,6083 7821,6370C7827,6477 7832,6575 7831,6587C7831,6603 7835,6607 7850,6603C7861,6600 7873,6593 7877,6586ZM2675,6528C2671,6515 2660,6496 2650,6485C2640,6474 2629,6444 2625,6418C2621,6392 2612,6369 2604,6366C2596,6363 2590,6353 2590,6345C2590,6327 2562,6330 2490,6355C2456,6367 2455,6368 2452,6428L2449,6489L2517,6509C2580,6528 2653,6547 2673,6549C2678,6550 2678,6540 2675,6528ZM9359,6442C9367,6427 9367,6403 9359,6353C9353,6316 9347,6267 9346,6246C9345,6211 9342,6206 9315,6199C9287,6192 9007,6169 9004,6173C9003,6174 9008,6234 9014,6306C9022,6397 9031,6444 9042,6461C9075,6509 9100,6535 9100,6523C9100,6501 9159,6497 9210,6516C9238,6526 9260,6538 9260,6542C9260,6554 9345,6467 9359,6442ZM2430,6443C2430,6427 2425,6408 2420,6400C2413,6389 2410,6396 2410,6428C2410,6451 2415,6470 2420,6470C2426,6470 2430,6458 2430,6443ZM2387,6402C2383,6400 2373,6404 2364,6410C2351,6421 2352,6425 2367,6443C2385,6462 2385,6462 2390,6434C2393,6418 2392,6403 2387,6402ZM2530,6285C2569,6275 2575,6270 2572,6249C2566,6192 2572,6117 2585,6086C2598,6056 2597,6047 2583,6012C2569,5975 2569,5964 2583,5898C2591,5858 2601,5818 2604,5810C2609,5799 2596,5788 2556,5769L2502,5742L2496,5765C2484,5813 2460,6049 2453,6179C2447,6309 2447,6313 2466,6306C2476,6301 2505,6292 2530,6285ZM9317,6112C9302,6095 9302,6090 9321,6041C9332,6011 9340,5986 9338,5985C9336,5983 9265,5990 9180,6001C9095,6011 9017,6019 9008,6020C8994,6020 8990,6029 8990,6060C8990,6084 8995,6103 9003,6105C9018,6111 9207,6127 9279,6129C9331,6130 9332,6129 9317,6112ZM8920,6100L8920,6027L8868,6033C8839,6037 8745,6044 8660,6051C8575,6057 8498,6065 8490,6068C8477,6073 8736,6094 8873,6098L8920,6100ZM5098,6035C5103,6030 5111,5982 5114,5930L5121,5835L5051,5832C5010,5830 4979,5833 4975,5839C4972,5845 4957,5850 4943,5850C4929,5850 4890,5860 4858,5872C4816,5887 4796,5890 4788,5882C4775,5869 4730,5895 4730,5915C4730,5934 4690,5981 4679,5974C4664,5965 4620,5998 4620,6020C4620,6034 4629,6040 4658,6043C4733,6051 5089,6045 5098,6035ZM8167,6034C8173,6017 8155,5531 8147,5524C8145,5521 8130,5525 8115,5532C8082,5547 8040,5635 8047,5673C8053,5704 8026,5750 8017,5725C8007,5701 7990,5707 7990,5735C7990,5754 7985,5760 7973,5758C7959,5756 7956,5761 7958,5782C7960,5800 7954,5813 7940,5823C7927,5832 7922,5843 7926,5854C7930,5865 7927,5870 7916,5870C7906,5870 7888,5882 7874,5897L7850,5923L7818,5900L7787,5877L7794,5955C7798,5999 7803,6037 7806,6042C7809,6046 7890,6050 7986,6050C8136,6050 8161,6048 8167,6034ZM6168,6024L6330,6018L6330,5460L6108,5460C5906,5460 5888,5461 5907,5475C5934,5494 5974,5549 5967,5557C5964,5560 5938,5540 5910,5513C5859,5463 5858,5463 5777,5456C5732,5453 5674,5450 5649,5450L5603,5450L5580,5523C5568,5562 5551,5602 5543,5611C5535,5621 5506,5630 5475,5633C5409,5640 5340,5672 5297,5717C5279,5736 5251,5758 5234,5766C5203,5781 5202,5783 5196,5868C5192,5916 5187,5974 5183,5997L5178,6040L5591,6035C5819,6032 6078,6027 6168,6024ZM7710,5989C7710,5960 7706,5941 7700,5945C7695,5948 7693,5957 7696,5965C7699,5973 7692,5985 7681,5992C7669,5999 7660,6010 7660,6017C7660,6023 7645,6031 7628,6033C7608,6035 7617,6037 7653,6038L7710,6040L7710,5989ZM8645,6009C8788,5998 8907,5987 8909,5985C8923,5971 8798,5356 8778,5344C8773,5341 8676,5348 8562,5361L8355,5383L8315,5425C8293,5448 8269,5469 8262,5471C8251,5475 8251,5513 8259,5670C8265,5777 8270,5905 8270,5953L8270,6041L8328,6035C8359,6032 8502,6021 8645,6009ZM7026,6000C7023,5984 7017,5956 7014,5939C7009,5914 7004,5909 6988,5913C6959,5921 6932,5888 6924,5833C6921,5807 6912,5778 6904,5770C6897,5761 6885,5728 6878,5696C6870,5658 6858,5633 6846,5626C6807,5604 6745,5558 6745,5552C6744,5548 6734,5529 6722,5510C6710,5491 6700,5471 6700,5467C6700,5463 6652,5461 6593,5462C6488,5465 6485,5466 6486,5488C6486,5500 6487,5625 6488,5765L6490,6019L6588,6023C6641,6024 6763,6027 6858,6028L7032,6030L7026,6000ZM7376,6006C7379,5992 7388,5979 7396,5976C7403,5973 7409,5958 7409,5943C7409,5928 7411,5903 7415,5888C7421,5865 7417,5858 7379,5834C7355,5819 7319,5796 7299,5783C7280,5770 7259,5760 7252,5760C7246,5760 7230,5749 7216,5735C7173,5692 7150,5704 7130,5779C7121,5812 7114,5975 7119,6023C7120,6027 7176,6030 7245,6030C7369,6030 7370,6030 7376,6006ZM9195,5955C9384,5933 9375,5936 9418,5872C9457,5813 9485,5746 9476,5732C9473,5728 9476,5706 9481,5684C9519,5533 9522,5509 9505,5484C9489,5460 9490,5436 9506,5358C9509,5342 9510,5330 9508,5330C9506,5330 9426,5319 9329,5307L9153,5284L9006,5305C8926,5317 8858,5329 8855,5332C8852,5335 8866,5404 8885,5486C8913,5610 8943,5762 8975,5948C8981,5980 8982,5981 9023,5975C9046,5972 9124,5963 9195,5955ZM2648,5718C2654,5700 2677,5636 2699,5575C2721,5515 2740,5462 2740,5458C2740,5448 2568,5508 2554,5523C2538,5540 2507,5676 2515,5690C2522,5701 2617,5750 2631,5750C2634,5750 2642,5735 2648,5718ZM10406,5606C10403,5592 10395,5580 10390,5580C10379,5580 10376,5633 10387,5643C10400,5656 10413,5631 10406,5606ZM2810,5309C2832,5263 2850,5218 2850,5209C2850,5201 2864,5173 2880,5147C2897,5121 2910,5097 2910,5095C2910,5092 2877,5074 2838,5054C2798,5034 2757,5011 2748,5002C2731,4988 2728,4991 2705,5044C2685,5090 2560,5450 2560,5463C2560,5465 2607,5450 2665,5430L2771,5394L2810,5309ZM6333,5293C6336,5222 6336,5161 6333,5157C6327,5147 5549,5159 5475,5170C5437,5176 5430,5179 5445,5185C5480,5198 5568,5306 5586,5359L5604,5409L5685,5413C5729,5414 5891,5417 6046,5418L6327,5420L6333,5293ZM6640,5403C6640,5393 6620,5363 6595,5336C6570,5310 6550,5283 6550,5278C6550,5272 6542,5270 6533,5272C6517,5276 6515,5270 6518,5213C6521,5155 6520,5150 6501,5150C6481,5150 6480,5155 6480,5285L6480,5420L6560,5420C6630,5420 6640,5418 6640,5403ZM8600,5314C8685,5305 8759,5294 8763,5290C8768,5286 8767,5273 8761,5263C8752,5245 8733,5242 8578,5231C8483,5224 8396,5217 8384,5215C8364,5211 8363,5214 8367,5263C8373,5339 8375,5342 8412,5336C8430,5333 8515,5323 8600,5314ZM8947,5267C8949,5265 8925,5260 8893,5257C8831,5250 8825,5252 8833,5273C8837,5284 8849,5286 8890,5279C8919,5275 8944,5269 8947,5267ZM9500,5263C9499,5222 9488,5219 9409,5237L9335,5254L9410,5266C9451,5272 9488,5278 9493,5279C9497,5279 9500,5272 9500,5263ZM9353,5204C9401,5194 9440,5182 9440,5175C9440,5169 9434,5156 9427,5145C9420,5134 9408,5109 9401,5090C9393,5071 9373,5021 9355,4980C9298,4849 9280,4768 9299,4732C9310,4711 9322,4520 9312,4520C9308,4520 9255,4533 9194,4550C9077,4581 8772,4644 8683,4656C8653,4660 8630,4668 8630,4674C8630,4681 8645,4725 8664,4771C8683,4818 8724,4933 8755,5027L8811,5197L8953,5213C9118,5231 9230,5229 9353,5204ZM8740,5181C8740,5166 8641,4870 8604,4773C8574,4695 8564,4680 8546,4681C8535,4681 8446,4692 8350,4704L8175,4727L8178,4784C8180,4818 8189,4854 8201,4873C8211,4891 8220,4912 8220,4921C8220,4930 8235,4957 8254,4981C8272,5005 8290,5034 8293,5045C8297,5056 8312,5078 8327,5094C8344,5113 8348,5121 8337,5117C8318,5110 8307,5122 8315,5142C8319,5151 8337,5158 8358,5159C8378,5160 8460,5167 8540,5174C8727,5191 8740,5192 8740,5181ZM2673,5070C2687,5034 2701,4997 2705,4988C2709,4977 2708,4970 2702,4970C2693,4970 2640,5114 2640,5137C2640,5151 2650,5132 2673,5070ZM6326,5095C6333,5093 6338,5045 6339,4957L6341,4822L6238,4816C6181,4813 6011,4808 5860,4804C5709,4801 5533,4795 5470,4791C5407,4787 5352,4786 5348,4789C5345,4792 5334,4843 5324,4901L5306,5007L5332,5039C5347,5056 5362,5079 5365,5091L5372,5111L5843,5105C6103,5101 6320,5097 6326,5095ZM6509,5018C6522,4932 6543,4868 6568,4838C6582,4821 6580,4820 6532,4820L6480,4820L6480,4960C6480,5037 6484,5100 6488,5100C6493,5100 6502,5063 6509,5018ZM3067,4942C3165,4843 3178,4827 3203,4759C3218,4718 3240,4661 3251,4632C3263,4603 3271,4577 3269,4575C3259,4565 3040,4628 2934,4671L2863,4700L2805,4820C2757,4919 2749,4942 2760,4955C2775,4973 2926,5050 2946,5050C2953,5050 3008,5001 3067,4942ZM2782,4820C2828,4720 2830,4709 2798,4734C2782,4746 2720,4885 2720,4909C2720,4939 2739,4911 2782,4820ZM10160,4845C10160,4820 10152,4807 10118,4780C10086,4754 10078,4751 10084,4766C10128,4885 10135,4898 10147,4888C10154,4882 10160,4863 10160,4845ZM2734,4821C2758,4762 2758,4759 2739,4771C2706,4794 2686,4834 2694,4865C2703,4899 2702,4899 2734,4821ZM7556,4867C7560,4864 7543,4790 7538,4785C7536,4782 7495,4783 7447,4787C7375,4792 7360,4796 7360,4810C7360,4830 7393,4849 7439,4855C7458,4857 7478,4864 7484,4870C7493,4879 7546,4877 7556,4867ZM7695,4821C7712,4818 7741,4803 7759,4789L7792,4763L7714,4768C7670,4770 7631,4776 7626,4780C7621,4785 7620,4801 7624,4815C7629,4835 7635,4840 7648,4835C7657,4831 7679,4825 7695,4821ZM7210,4810C7210,4805 7205,4800 7199,4800C7194,4800 7192,4805 7195,4810C7198,4816 7203,4820 7206,4820C7208,4820 7210,4816 7210,4810ZM6340,4780L6340,4301L6058,4307C5752,4313 5750,4313 5728,4370L5718,4395L5700,4372C5689,4359 5679,4354 5675,4360C5663,4380 5648,4370 5654,4345L5660,4320L5555,4320C5497,4320 5450,4322 5450,4324C5450,4325 5439,4372 5426,4426C5392,4562 5360,4711 5360,4731C5360,4745 5380,4748 5513,4755C5710,4765 6039,4776 6208,4778L6340,4780ZM6615,4733C6625,4706 6638,4658 6644,4625C6656,4566 6657,4565 6693,4559C6714,4556 6743,4541 6758,4527C6793,4493 6813,4493 6840,4527L6861,4554L6884,4525C6906,4497 6910,4496 6941,4507C6960,4513 6989,4521 7006,4525C7042,4532 7075,4564 7083,4600C7091,4635 7129,4673 7147,4666C7158,4662 7160,4664 7156,4675C7149,4694 7170,4741 7181,4734C7186,4731 7190,4720 7190,4709C7190,4697 7197,4690 7208,4691C7218,4691 7220,4694 7213,4697C7206,4699 7200,4715 7200,4731C7200,4755 7204,4760 7224,4760C7241,4760 7252,4751 7262,4730C7278,4693 7286,4692 7297,4727C7306,4754 7307,4754 7391,4752C7437,4750 7488,4747 7503,4744C7529,4739 7531,4735 7525,4707C7509,4625 7437,4334 7431,4328C7428,4325 7289,4318 7122,4314L6819,4307L6836,4343C6857,4387 6853,4393 6812,4379C6789,4371 6771,4371 6748,4379C6710,4392 6697,4380 6704,4339C6709,4315 6705,4312 6672,4306C6615,4297 6482,4299 6475,4309C6472,4314 6473,4422 6476,4549L6483,4780L6598,4780L6615,4733ZM5305,4663C5315,4620 5337,4528 5355,4458L5388,4330L5296,4331C5173,4332 5155,4338 5156,4377C5157,4394 5167,4417 5179,4429C5190,4440 5200,4456 5200,4463C5200,4471 5208,4484 5219,4494C5233,4507 5236,4520 5232,4559C5228,4600 5231,4609 5249,4622C5266,4634 5269,4644 5264,4664C5257,4694 5266,4740 5280,4740C5285,4740 5296,4705 5305,4663ZM7775,4723C7819,4719 7862,4715 7870,4714C7878,4714 7897,4712 7912,4711C7929,4711 7954,4695 7979,4670C8001,4648 8026,4630 8034,4630C8055,4630 8054,4608 8030,4475C8019,4415 8010,4365 8010,4364C8010,4354 7523,4324 7513,4334C7509,4338 7578,4632 7606,4728C7609,4737 7622,4740 7652,4736C7676,4733 7731,4727 7775,4723ZM2904,4582C2931,4534 2982,4449 3018,4393C3079,4294 3081,4289 3070,4255C3064,4236 3057,4220 3055,4220C3044,4220 2810,4661 2810,4683C2810,4687 2820,4685 2833,4679C2845,4673 2877,4631 2904,4582ZM8310,4670C8498,4647 8540,4638 8540,4621C8539,4612 8517,4558 8490,4500L8441,4395L8328,4383C8266,4377 8190,4371 8159,4371L8103,4370L8126,4493C8138,4560 8151,4632 8155,4653C8161,4689 8163,4690 8193,4685C8211,4683 8263,4676 8310,4670ZM2938,4631C2972,4614 3164,4553 3250,4532C3273,4527 3286,4517 3288,4504C3290,4494 3296,4475 3302,4463C3315,4436 3320,4441 3243,4400C3209,4382 3163,4352 3141,4334L3102,4300L3082,4327C3021,4414 2884,4650 2895,4650C2898,4650 2917,4642 2938,4631ZM8770,4600C8918,4573 9193,4510 9203,4501C9214,4490 8983,4456 8553,4405C8529,4403 8510,4404 8510,4409C8510,4413 8532,4465 8560,4524C8605,4619 8612,4630 8632,4625C8645,4623 8707,4611 8770,4600ZM9919,4459C9868,4357 9799,4240 9790,4240C9770,4240 9776,4269 9805,4315C9823,4342 9846,4383 9858,4405C9884,4456 9940,4533 9946,4527C9949,4524 9937,4493 9919,4459ZM9279,4398C9255,4352 9167,4217 9086,4105C9033,4033 8930,3900 8926,3900C8925,3900 8890,3911 8849,3925C8740,3963 8602,3999 8457,4029C8387,4044 8328,4058 8327,4061C8325,4066 8388,4185 8457,4307C8471,4333 8490,4351 8503,4354C8515,4356 8626,4370 8750,4385C8874,4400 9047,4424 9135,4439C9252,4458 9296,4462 9298,4453C9300,4447 9291,4422 9279,4398ZM3353,4334C3363,4307 3385,4246 3400,4198C3416,4150 3436,4100 3445,4087C3454,4073 3462,4054 3464,4043C3467,4032 3489,3992 3515,3954C3547,3906 3557,3884 3547,3882C3539,3880 3498,3892 3454,3908L3375,3936L3288,4045C3240,4105 3184,4178 3163,4208L3126,4263L3158,4289C3202,4326 3313,4391 3325,4387C3330,4385 3343,4361 3353,4334ZM8355,4222C8323,4162 8290,4103 8280,4090L8263,4067L8151,4085C8061,4100 8040,4106 8045,4118C8048,4126 8059,4173 8070,4223C8081,4273 8091,4314 8092,4315C8101,4322 8406,4344 8408,4338C8410,4334 8386,4281 8355,4222ZM7996,4293C7994,4283 7984,4240 7975,4198C7960,4130 7955,4120 7936,4120C7925,4120 7832,4129 7730,4140C7628,4151 7527,4161 7505,4162C7467,4165 7465,4166 7467,4197C7473,4273 7479,4277 7582,4284C7633,4288 7731,4294 7800,4299C8004,4312 8002,4312 7996,4293ZM5399,4274C5408,4263 5433,4180 5428,4175C5426,4173 5331,4162 5216,4150C5101,4139 4978,4125 4941,4120C4842,4106 4842,4106 4831,4148C4808,4240 4808,4235 4845,4250C4864,4257 4881,4268 4883,4274C4889,4288 5387,4288 5399,4274ZM5718,4257C5724,4252 5730,4243 5730,4237C5730,4230 5745,4218 5763,4211C5795,4197 5794,4197 5710,4189C5573,4177 5500,4176 5490,4186C5485,4191 5478,4213 5475,4235L5468,4275L5587,4270C5652,4267 5711,4261 5718,4257ZM7413,4273C7416,4268 7411,4243 7403,4216L7389,4168L7347,4174C7299,4180 6960,4196 6667,4206C6472,4212 6469,4213 6472,4234C6475,4254 6481,4255 6599,4258C6668,4259 6731,4258 6739,4254C6748,4250 6760,4248 6765,4250C6771,4252 6915,4259 7085,4265C7256,4272 7398,4278 7402,4278C7406,4279 7411,4277 7413,4273ZM6340,4236C6340,4214 6336,4213 6258,4207C6212,4203 6117,4200 6047,4200C5918,4200 5895,4205 5830,4249C5820,4257 5895,4260 6078,4260L6340,4260L6340,4236ZM4736,4133L4742,4093L4700,4086C4678,4083 4655,4082 4649,4085C4629,4098 4642,4134 4677,4167C4718,4206 4725,4202 4736,4133ZM6343,4118C6346,4083 6349,3967 6350,3859L6352,3663L6173,3656C6075,3652 5924,3645 5836,3639C5749,3633 5674,3632 5669,3637C5662,3645 5530,4034 5512,4102C5502,4137 5503,4139 5528,4144C5543,4147 5610,4152 5678,4156L5801,4162L5839,4121C5876,4081 5920,4066 5935,4090C5938,4096 5950,4100 5960,4100C5988,4100 5994,4118 5976,4145L5960,4170L6127,4173C6220,4174 6305,4177 6316,4178C6336,4180 6338,4174 6343,4118ZM6898,4165C7107,4160 7369,4144 7377,4137C7381,4132 7281,3830 7240,3722C7222,3676 7202,3636 7194,3633C7187,3630 7103,3633 7008,3639C6913,3645 6750,3652 6647,3656L6459,3663L6465,3909C6469,4044 6473,4161 6476,4168C6478,4177 6504,4179 6577,4175C6631,4173 6775,4168 6898,4165ZM9181,4156C9163,4109 9040,3871 9031,3866C9023,3861 8979,3874 8961,3887C8959,3888 8977,3913 9002,3942C9026,3971 9077,4037 9114,4088C9151,4138 9183,4180 9186,4180C9188,4180 9185,4169 9181,4156ZM9229,3992C9212,3909 9204,3890 9177,3864C9142,3829 9103,3816 9080,3830C9069,3837 9081,3868 9145,3997L9225,4155L9237,4122C9246,4095 9244,4071 9229,3992ZM5485,4010C5542,3838 5554,3806 5589,3717C5606,3674 5620,3636 5620,3631C5620,3611 5406,3608 5191,3624C5073,3634 4975,3642 4973,3643C4970,3647 4863,4012 4856,4046L4849,4077L4992,4094C5208,4120 5392,4138 5419,4137C5441,4135 5448,4123 5485,4010ZM7715,4109C7831,4097 7930,4085 7936,4081C7948,4075 7921,3957 7861,3753C7834,3662 7824,3641 7806,3636C7795,3633 7697,3626 7589,3619C7406,3608 7260,3612 7260,3629C7260,3633 7281,3687 7306,3750C7332,3813 7372,3923 7396,3993C7420,4064 7442,4125 7444,4129C7447,4133 7462,4135 7477,4134C7492,4132 7600,4121 7715,4109ZM8145,4054C8200,4045 8246,4036 8248,4035C8254,4030 8048,3718 8011,3673C7988,3646 7903,3638 7913,3664C7929,3704 7990,3906 8010,3983C8023,4031 8036,4070 8039,4070C8042,4070 8089,4063 8145,4054ZM4780,3973C4793,3924 4819,3840 4837,3786C4855,3731 4868,3685 4866,3683C4858,3674 4681,3950 4671,3987C4655,4042 4657,4048 4688,4053C4757,4063 4754,4066 4780,3973ZM8680,3940C8743,3922 8819,3899 8847,3888L8900,3869L8854,3815C8823,3780 8798,3760 8776,3756C8666,3733 8125,3660 8068,3660C8056,3660 8073,3691 8130,3770C8173,3831 8229,3913 8254,3954L8300,4028L8433,4000C8505,3984 8617,3957 8680,3940ZM4705,3849C4730,3810 4769,3754 4791,3724C4812,3695 4830,3667 4830,3662C4830,3655 4634,3671 4553,3685C4507,3693 4510,3720 4565,3773C4598,3806 4610,3826 4610,3847C4610,3876 4634,3920 4650,3920C4655,3920 4680,3888 4705,3849ZM9402,3833C9369,3795 9324,3748 9302,3726L9262,3688L9226,3726C9207,3748 9190,3768 9190,3772C9190,3781 9335,3850 9354,3850C9361,3850 9378,3858 9391,3869C9415,3887 9437,3898 9454,3899C9458,3900 9435,3870 9402,3833ZM3512,3859C3571,3839 3580,3832 3599,3795C3622,3748 3624,3732 3610,3710C3602,3698 3592,3704 3550,3745C3482,3811 3412,3895 3430,3887C3438,3884 3475,3871 3512,3859ZM8999,3826C9010,3814 9010,3811 8994,3802C8983,3797 8957,3790 8935,3786C8913,3782 8886,3776 8876,3773C8860,3769 8863,3776 8890,3810C8919,3847 8927,3851 8954,3846C8971,3842 8991,3833 8999,3826ZM9133,3751C9189,3712 9234,3664 9226,3651C9213,3631 8964,3416 8869,3344C8795,3288 8759,3268 8712,3256C8628,3234 8625,3235 8660,3278C8764,3400 8863,3530 8941,3647C9023,3769 9033,3780 9061,3780C9078,3780 9109,3768 9133,3751ZM8970,3754C8970,3740 8796,3487 8723,3395C8614,3258 8619,3260 8567,3297C8544,3314 8505,3337 8480,3350L8436,3372L8475,3404C8523,3441 8718,3619 8722,3629C8724,3632 8748,3657 8776,3683C8818,3722 8838,3732 8891,3744C8970,3761 8970,3761 8970,3754ZM8760,3711C8760,3706 8698,3643 8623,3572C8455,3415 8414,3379 8408,3385C8396,3397 8193,3462 8079,3491C8011,3508 7953,3523 7951,3526C7949,3528 7963,3549 7983,3573L8019,3617L8132,3629C8272,3644 8733,3710 8739,3716C8747,3723 8760,3720 8760,3711ZM3679,3624C3687,3614 3679,3619 3661,3636C3639,3657 3630,3672 3636,3681C3642,3691 3647,3688 3654,3669C3660,3654 3671,3634 3679,3624ZM4779,3624C4866,3617 4891,3603 4921,3547C4933,3527 4939,3529 4805,3500C4750,3488 4648,3459 4578,3435L4451,3393L4415,3422C4383,3449 4381,3455 4386,3489C4391,3523 4389,3529 4362,3549C4335,3568 4333,3573 4343,3594C4354,3616 4359,3618 4408,3614C4454,3610 4464,3613 4482,3633C4502,3655 4503,3655 4599,3643C4652,3636 4733,3628 4779,3624ZM6350,3605L6350,3580L6203,3581C6121,3582 5981,3586 5890,3589C5740,3595 5731,3596 5791,3604C5827,3608 5955,3615 6076,3619C6196,3623 6307,3628 6323,3628C6346,3630 6350,3626 6350,3605ZM6871,3614C6968,3611 7063,3605 7081,3601C7115,3594 6778,3580 6568,3580C6470,3580 6460,3582 6460,3598C6460,3608 6463,3620 6467,3624C6472,3628 6524,3629 6585,3626C6645,3623 6774,3618 6871,3614ZM7951,3593C7946,3583 7930,3564 7916,3551C7882,3519 7866,3533 7885,3578C7897,3604 7905,3610 7930,3610C7956,3610 7959,3607 7951,3593ZM5168,3590C5239,3590 5207,3574 5109,3560C5023,3547 5016,3548 5004,3565C4979,3598 4987,3603 5058,3597C5095,3593 5144,3590 5168,3590ZM7804,3578C7801,3565 7797,3554 7796,3553C7792,3547 7650,3575 7650,3581C7650,3586 7678,3591 7713,3593C7747,3595 7783,3597 7793,3598C7808,3600 7810,3595 7804,3578ZM5568,3564C5624,3560 5660,3553 5660,3546C5660,3540 5703,3450 5755,3345C5807,3241 5848,3155 5847,3155C5846,3154 5757,3141 5650,3126C5543,3110 5440,3095 5421,3092C5388,3088 5381,3093 5223,3254C5051,3428 5002,3497 5038,3512C5064,3523 5368,3568 5426,3569C5454,3570 5518,3567 5568,3564ZM7608,3546C7698,3533 7774,3520 7776,3517C7782,3512 7734,3378 7709,3328C7683,3277 7513,3113 7472,3099C7430,3085 7369,3095 7376,3114C7383,3133 7349,3143 7319,3132C7306,3127 7279,3124 7260,3124C7146,3130 7155,3128 7176,3151L7195,3172L7162,3153C7135,3138 7128,3137 7121,3149C7114,3159 7100,3161 7066,3156C7041,3152 7020,3151 7020,3153C7020,3155 7056,3224 7099,3305C7143,3387 7189,3477 7200,3506L7222,3559L7278,3563C7410,3571 7453,3569 7608,3546ZM6071,3544L6347,3538L6354,3441C6357,3388 6360,3309 6360,3264L6360,3183L6240,3176C6174,3173 6067,3167 6002,3164L5884,3157L5802,3329C5756,3424 5717,3515 5713,3531L5707,3562L5751,3556C5775,3553 5919,3548 6071,3544ZM7170,3555C7170,3553 7150,3504 7125,3448C7069,3320 6998,3189 6978,3177C6956,3162 6887,3178 6894,3196C6901,3215 6894,3214 6870,3190C6847,3167 6814,3166 6586,3177L6449,3183L6455,3359C6458,3455 6462,3535 6463,3536C6464,3538 6607,3543 6780,3548C6953,3553 7112,3558 7133,3558C7153,3559 7170,3558 7170,3555ZM7870,3491C7870,3486 7863,3477 7855,3470C7839,3456 7837,3460 7846,3484C7852,3501 7870,3506 7870,3491ZM4965,3443C4975,3416 5018,3324 5061,3237L5140,3078L5102,3084C5082,3087 5007,3097 4937,3105C4814,3120 4806,3122 4746,3163C4668,3215 4491,3353 4490,3361C4490,3369 4724,3445 4825,3469C4943,3498 4944,3498 4965,3443ZM8012,3470C8179,3431 8370,3367 8370,3351C8370,3342 8199,3210 8120,3158C8067,3124 8058,3121 7890,3101C7682,3076 7680,3076 7680,3095C7680,3103 7705,3161 7735,3224C7765,3286 7790,3341 7790,3345C7790,3354 7913,3490 7922,3490C7926,3490 7967,3481 8012,3470ZM4389,3414C4425,3384 4427,3374 4402,3366C4392,3362 4357,3344 4324,3324C4275,3295 4262,3290 4247,3300C4223,3315 4215,3307 4234,3287C4242,3279 4246,3270 4243,3266C4240,3263 4211,3288 4179,3323C4147,3357 4123,3386 4125,3388C4127,3390 4146,3382 4169,3371C4233,3338 4266,3348 4236,3392C4207,3433 4215,3440 4289,3440C4349,3440 4363,3437 4389,3414ZM4543,3287C4588,3253 4653,3205 4688,3181C4722,3157 4750,3135 4750,3133C4750,3126 4413,3186 4313,3211L4266,3223L4303,3255C4333,3281 4444,3349 4458,3350C4460,3350 4499,3322 4543,3287ZM5282,3163C5330,3119 5366,3080 5363,3076C5359,3073 5326,3070 5288,3070L5219,3070L5155,3203C5119,3275 5090,3340 5090,3345C5090,3351 5114,3330 5143,3300C5171,3270 5234,3208 5282,3163ZM8476,3304C8508,3285 8546,3258 8559,3246L8582,3222L8514,3207C8413,3184 8172,3140 8147,3140C8131,3140 8143,3152 8190,3184C8226,3209 8287,3253 8325,3283C8364,3313 8400,3339 8406,3339C8411,3340 8443,3324 8476,3304ZM8686,3215C8663,3198 8650,3196 8650,3209C8650,3220 8668,3228 8690,3229C8701,3229 8700,3226 8686,3215ZM7629,3148C7610,3110 7595,3091 7591,3099C7587,3105 7576,3108 7567,3104C7558,3101 7550,3102 7550,3108C7550,3120 7641,3210 7653,3210C7657,3210 7646,3182 7629,3148ZM4435,3165C4496,3152 4604,3132 4675,3120C4801,3099 4808,3097 4905,3038C4960,3004 5009,2973 5014,2969C5018,2965 5008,2954 4990,2945C4972,2936 4938,2908 4914,2883C4881,2850 4865,2840 4851,2845C4838,2849 4833,2857 4837,2866C4841,2878 4837,2881 4819,2879C4789,2876 4777,2881 4660,2937C4484,3021 4377,3086 4320,3146C4268,3200 4266,3202 4295,3195C4312,3191 4375,3178 4435,3165ZM8610,3185C8620,3173 8610,3163 8551,3125C8512,3100 8477,3080 8473,3080C8469,3080 8492,3107 8525,3140C8558,3173 8587,3200 8591,3200C8595,3200 8603,3193 8610,3185ZM4266,3163C4259,3156 4240,3170 4240,3182C4240,3188 4246,3188 4255,3180C4264,3173 4268,3165 4266,3163ZM8460,3104C8378,3022 8369,3015 8195,2930C8096,2882 8005,2839 7994,2836C7977,2831 7968,2836 7953,2863C7942,2881 7912,2910 7886,2926C7861,2942 7840,2957 7840,2960C7841,2963 7895,2996 7960,3034C8077,3103 8082,3104 8212,3126C8285,3139 8386,3158 8435,3169C8485,3179 8529,3188 8535,3189C8540,3190 8506,3151 8460,3104ZM6362,3114C6365,3085 6362,3076 6346,3069C6334,3064 6312,3052 6295,3042C6269,3026 6243,3023 6116,3024L5967,3025L5937,3073C5921,3099 5910,3124 5913,3127C5921,3135 6102,3147 6241,3149L6358,3150L6362,3114ZM6616,3135C6606,3127 6593,3123 6588,3126C6583,3129 6574,3127 6567,3122C6555,3112 6504,3106 6468,3109C6457,3109 6450,3118 6450,3130C6450,3149 6457,3150 6543,3150C6625,3149 6633,3148 6616,3135ZM5893,3093C5906,3072 5920,3049 5925,3041C5932,3029 5911,3028 5782,3033C5541,3044 5428,3053 5437,3060C5445,3068 5654,3103 5785,3119C5824,3124 5858,3128 5862,3129C5866,3129 5880,3113 5893,3093ZM5035,3069C5099,3062 5151,3052 5159,3044C5177,3027 5178,3028 5103,2998L5041,2973L4955,3025C4851,3089 4845,3094 4890,3087C4909,3083 4975,3076 5035,3069ZM8010,3087C8010,3085 7977,3063 7938,3038C7852,2985 7783,2973 7773,3010C7767,3032 7762,3034 7728,3021C7713,3016 7694,3018 7670,3028L7635,3044L7685,3052C7839,3077 8010,3095 8010,3087ZM4416,3029C4426,3017 4480,2974 4535,2933C4590,2891 4637,2855 4640,2853C4652,2842 4582,2876 4550,2897C4531,2910 4512,2920 4508,2920C4481,2920 4380,3020 4380,3046C4380,3057 4399,3048 4416,3029ZM5545,2945C5606,2900 5691,2841 5734,2814C5778,2787 5813,2761 5812,2755C5809,2743 5767,2741 5759,2753C5755,2758 5738,2757 5717,2752C5697,2746 5679,2744 5676,2747C5673,2750 5631,2753 5583,2753C5445,2752 5411,2772 5327,2897C5290,2952 5260,3002 5260,3008C5260,3026 5321,3039 5380,3033C5430,3028 5446,3019 5545,2945ZM5735,3009C5892,3001 5957,2994 5962,2985C5978,2958 6065,2843 6093,2813L6123,2781L6089,2776C5898,2744 5885,2743 5860,2753C5796,2781 5493,2992 5474,3021C5471,3027 5478,3029 5492,3026C5504,3023 5614,3016 5735,3009ZM4612,2947C4691,2907 4780,2863 4811,2851C4855,2834 4869,2823 4873,2804C4878,2775 4868,2774 4791,2794C4726,2812 4638,2870 4476,3002C4439,3033 4466,3022 4612,2947ZM6140,2990C6148,2985 6151,2980 6147,2980C6129,2980 6204,2922 6229,2917C6268,2909 6320,2853 6320,2819C6320,2791 6319,2790 6280,2796C6257,2800 6220,2797 6195,2790C6159,2780 6147,2780 6134,2790C6103,2816 5990,2976 5990,2994C5990,3004 6124,3001 6140,2990ZM5249,2915L5301,2839L5196,2892C5138,2921 5090,2948 5090,2951C5090,2959 5159,2989 5181,2989C5189,2990 5220,2956 5249,2915ZM6340,2980C6340,2975 6333,2970 6324,2970C6316,2970 6312,2975 6315,2980C6318,2986 6325,2990 6331,2990C6336,2990 6340,2986 6340,2980ZM5199,2875C5291,2830 5336,2801 5354,2777C5383,2739 5386,2728 5366,2736C5355,2740 5353,2736 5357,2719C5363,2697 5362,2697 5290,2704C5250,2708 5189,2720 5156,2731C5084,2753 5087,2753 5096,2739C5100,2732 5096,2730 5084,2733C5073,2736 5034,2744 4997,2750C4956,2758 4926,2768 4923,2777C4913,2802 4927,2802 4986,2781C5017,2769 5044,2761 5047,2763C5049,2765 5023,2777 4990,2789C4957,2801 4930,2815 4930,2821C4930,2842 4964,2881 5008,2910C5033,2926 5057,2940 5062,2940C5066,2940 5128,2911 5199,2875ZM7873,2881C7889,2867 7906,2846 7912,2836C7921,2819 7919,2819 7891,2839C7874,2851 7856,2859 7850,2855C7845,2852 7811,2847 7775,2844C7696,2837 7690,2850 7751,2904C7791,2941 7792,2941 7818,2924C7833,2915 7858,2896 7873,2881ZM4850,2765C4877,2757 4920,2722 4920,2708C4920,2699 4815,2754 4795,2773C4785,2782 4789,2782 4850,2765ZM5456,2755C5472,2743 5472,2741 5459,2740C5450,2740 5437,2747 5430,2755C5414,2774 5430,2774 5456,2755ZM8030,2766C8030,2764 8010,2750 7985,2737C7936,2709 7925,2716 7966,2749C7989,2767 8030,2778 8030,2766ZM7770,2625C7740,2608 7730,2607 7730,2619C7730,2627 7752,2635 7785,2638C7791,2639 7784,2633 7770,2625Z" style="fill:rgb(161,0,255);fill-opacity:0.7;fill-rule:nonzero;"/>
        </g>
        <g transform="matrix(0.87372,-2.04568e-48,-1.23021e-47,0.87372,811.887,814.578)">
            <path d="M6140,9896C6140,9894 6147,9889 6156,9886C6164,9883 6168,9884 6165,9890C6159,9900 6140,9904 6140,9896Z" style="fill:rgb(161,0,255);fill-opacity:0.7;fill-rule:nonzero;"/>
        </g>
        <g transform="matrix(0.87372,-2.04568e-48,-1.23021e-47,0.87372,811.887,814.578)">
            <path d="M5325,9950C5322,9945 5326,9940 5334,9940C5342,9940 5352,9945 5355,9950C5358,9956 5354,9960 5346,9960C5338,9960 5328,9956 5325,9950Z" style="fill:rgb(161,0,255);fill-opacity:0.7;fill-rule:nonzero;"/>
        </g>
        <g transform="matrix(0.87372,-2.04568e-48,-1.23021e-47,0.87372,811.887,814.578)">
            <path d="M4490,9695C4497,9687 4514,9680 4529,9680C4554,9681 4554,9681 4536,9695C4525,9703 4507,9710 4497,9710C4481,9710 4480,9707 4490,9695Z" style="fill:rgb(161,0,255);fill-opacity:0.7;fill-rule:nonzero;"/>
        </g>
        <g transform="matrix(0.87372,-2.04568e-48,-1.23021e-47,0.87372,811.887,814.578)">
            <path d="M4346,9536C4353,9518 4395,9514 4405,9530C4408,9536 4402,9540 4391,9540C4381,9540 4364,9543 4356,9546C4344,9551 4341,9548 4346,9536Z" style="fill:rgb(161,0,255);fill-opacity:0.7;fill-rule:nonzero;"/>
        </g>
        <g transform="matrix(0.87372,-2.04568e-48,-1.23021e-47,0.87372,811.887,814.578)">
            <path d="M5150,9700C5150,9695 5155,9690 5160,9690C5166,9690 5170,9695 5170,9700C5170,9706 5166,9710 5160,9710C5155,9710 5150,9706 5150,9700Z" style="fill:rgb(161,0,255);fill-opacity:0.7;fill-rule:nonzero;"/>
        </g>
        <g transform="matrix(0.87372,-2.04568e-48,-1.23021e-47,0.87372,811.887,814.578)">
            <path d="M5195,9680C5198,9675 5203,9670 5206,9670C5208,9670 5210,9675 5210,9680C5210,9686 5205,9690 5199,9690C5194,9690 5192,9686 5195,9680Z" style="fill:rgb(161,0,255);fill-opacity:0.7;fill-rule:nonzero;"/>
        </g>
        <g transform="matrix(0.87372,-2.04568e-48,-1.23021e-47,0.87372,811.887,814.578)">
            <path d="M4844,9603C4827,9587 4816,9576 4818,9577C4821,9579 4829,9575 4835,9570C4848,9559 4882,9590 4886,9615C4889,9637 4878,9633 4844,9603Z" style="fill:rgb(161,0,255);fill-opacity:0.7;fill-rule:nonzero;"/>
        </g>
        <g transform="matrix(0.87372,-2.04568e-48,-1.23021e-47,0.87372,811.887,814.578)">
            <path d="M7386,8404C7377,8382 7389,8372 7400,8390C7412,8409 7412,8420 7401,8420C7396,8420 7389,8413 7386,8404Z" style="fill:rgb(161,0,255);fill-opacity:0.7;fill-rule:nonzero;"/>
        </g>
        <g transform="matrix(0.87372,-2.04568e-48,-1.23021e-47,0.87372,811.887,814.578)">
            <path d="M7185,8397C7171,8386 7170,8381 7180,8375C7191,8368 7209,8384 7210,8403C7210,8413 7207,8412 7185,8397Z" style="fill:rgb(161,0,255);fill-opacity:0.7;fill-rule:nonzero;"/>
        </g>
        <g transform="matrix(0.87372,-2.04568e-48,-1.23021e-47,0.87372,811.887,814.578)">
            <path d="M7266,8373C7255,8362 7260,8350 7275,8350C7283,8350 7290,8354 7290,8359C7290,8372 7274,8381 7266,8373Z" style="fill:rgb(161,0,255);fill-opacity:0.7;fill-rule:nonzero;"/>
        </g>
        <g transform="matrix(0.87372,-2.04568e-48,-1.23021e-47,0.87372,811.887,814.578)">
            <path d="M2907,8453C2903,8450 2900,8442 2900,8436C2900,8430 2905,8431 2912,8438C2918,8444 2921,8452 2919,8455C2916,8458 2910,8457 2907,8453Z" style="fill:rgb(161,0,255);fill-opacity:0.7;fill-rule:nonzero;"/>
        </g>
        <g transform="matrix(0.87372,-2.04568e-48,-1.23021e-47,0.87372,811.887,814.578)">
            <path d="M4110,8039C4110,8034 4115,8032 4120,8035C4126,8038 4130,8043 4130,8046C4130,8048 4126,8050 4120,8050C4115,8050 4110,8045 4110,8039Z" style="fill:rgb(161,0,255);fill-opacity:0.7;fill-rule:nonzero;"/>
        </g>
        <g transform="matrix(0.87372,-2.04568e-48,-1.23021e-47,0.87372,811.887,814.578)">
            <path d="M2837,7694C2823,7680 2851,7650 2873,7654C2885,7657 2897,7659 2899,7659C2901,7660 2895,7669 2885,7680C2867,7700 2849,7705 2837,7694Z" style="fill:rgb(161,0,255);fill-opacity:0.7;fill-rule:nonzero;"/>
        </g>
        <g transform="matrix(0.87372,-2.04568e-48,-1.23021e-47,0.87372,811.887,814.578)">
            <path d="M3560,7485C3552,7476 3552,7470 3558,7470C3570,7470 3584,7489 3577,7496C3575,7498 3567,7494 3560,7485Z" style="fill:rgb(161,0,255);fill-opacity:0.7;fill-rule:nonzero;"/>
        </g>
        <g transform="matrix(0.87372,-2.04568e-48,-1.23021e-47,0.87372,811.887,814.578)">
            <path d="M6700,7420C6700,7415 6705,7410 6710,7410C6716,7410 6720,7415 6720,7420C6720,7426 6716,7430 6710,7430C6705,7430 6700,7426 6700,7420Z" style="fill:rgb(161,0,255);fill-opacity:0.7;fill-rule:nonzero;"/>
        </g>
        <g transform="matrix(0.87372,-2.04568e-48,-1.23021e-47,0.87372,811.887,814.578)">
            <path d="M6630,7346C6630,7338 6635,7328 6640,7325C6646,7322 6650,7326 6650,7334C6650,7342 6646,7352 6640,7355C6635,7358 6630,7354 6630,7346Z" style="fill:rgb(161,0,255);fill-opacity:0.7;fill-rule:nonzero;"/>
        </g>
        <g transform="matrix(0.87372,-2.04568e-48,-1.23021e-47,0.87372,811.887,814.578)">
            <path d="M3570,7356C3570,7347 3575,7340 3580,7340C3586,7340 3590,7344 3590,7349C3590,7355 3586,7362 3580,7365C3575,7368 3570,7364 3570,7356Z" style="fill:rgb(161,0,255);fill-opacity:0.7;fill-rule:nonzero;"/>
        </g>
        <g transform="matrix(0.87372,-2.04568e-48,-1.23021e-47,0.87372,811.887,814.578)">
            <path d="M3514,7042C3496,7030 3490,6990 3506,6990C3514,6990 3523,6996 3526,7004C3534,7026 3527,7051 3514,7042Z" style="fill:rgb(161,0,255);fill-opacity:0.7;fill-rule:nonzero;"/>
        </g>
        <g transform="matrix(0.87372,-2.04568e-48,-1.23021e-47,0.87372,811.887,814.578)">
            <path d="M6279,6278C6267,6255 6267,6255 6289,6274C6312,6295 6315,6300 6300,6300C6295,6300 6285,6290 6279,6278Z" style="fill:rgb(161,0,255);fill-opacity:0.7;fill-rule:nonzero;"/>
        </g>
        <g transform="matrix(0.87372,-2.04568e-48,-1.23021e-47,0.87372,811.887,814.578)">
            <path d="M6117,6265C6113,6254 6107,6238 6104,6230C6099,6218 6101,6218 6115,6231C6124,6240 6130,6256 6128,6266C6124,6284 6124,6284 6117,6265Z" style="fill:rgb(161,0,255);fill-opacity:0.7;fill-rule:nonzero;"/>
        </g>
        <g transform="matrix(0.87372,-2.04568e-48,-1.23021e-47,0.87372,811.887,814.578)">
            <path d="M6151,6209C6138,6204 6129,6197 6132,6195C6138,6189 6190,6207 6190,6215C6190,6222 6179,6220 6151,6209Z" style="fill:rgb(161,0,255);fill-opacity:0.7;fill-rule:nonzero;"/>
        </g>
        <g transform="matrix(0.87372,-2.04568e-48,-1.23021e-47,0.87372,811.887,814.578)">
            <path d="M7430,6725C7422,6716 7422,6710 7428,6710C7440,6710 7454,6729 7447,6736C7445,6738 7437,6734 7430,6725Z" style="fill:rgb(161,0,255);fill-opacity:0.7;fill-rule:nonzero;"/>
        </g>
        <g transform="matrix(0.87372,-2.04568e-48,-1.23021e-47,0.87372,811.887,814.578)">
            <path d="M6541,6541C6535,6530 6534,6519 6539,6516C6544,6513 6550,6520 6553,6532C6561,6562 6554,6567 6541,6541Z" style="fill:rgb(161,0,255);fill-opacity:0.7;fill-rule:nonzero;"/>
        </g>
        <g transform="matrix(0.87372,-2.04568e-48,-1.23021e-47,0.87372,811.887,814.578)">
            <path d="M6573,6513C6569,6504 6572,6494 6578,6492C6585,6490 6590,6483 6590,6476C6590,6461 6668,6410 6692,6410C6715,6410 6785,6439 6778,6445C6776,6448 6747,6451 6714,6451C6665,6452 6651,6457 6633,6477C6620,6490 6610,6508 6610,6516C6610,6536 6581,6534 6573,6513Z" style="fill:rgb(161,0,255);fill-opacity:0.7;fill-rule:nonzero;"/>
        </g>
        <g transform="matrix(0.87372,-2.04568e-48,-1.23021e-47,0.87372,811.887,814.578)">
            <path d="M7490,6421C7490,6410 7487,6395 7484,6386C7480,6376 7484,6368 7494,6364C7518,6355 7522,6363 7515,6404C7507,6442 7490,6454 7490,6421Z" style="fill:rgb(161,0,255);fill-opacity:0.7;fill-rule:nonzero;"/>
        </g>
        <g transform="matrix(0.87372,-2.04568e-48,-1.23021e-47,0.87372,811.887,814.578)">
            <path d="M7640,6325C7640,6307 7659,6285 7666,6293C7670,6297 7666,6308 7657,6317C7648,6327 7640,6330 7640,6325Z" style="fill:rgb(161,0,255);fill-opacity:0.7;fill-rule:nonzero;"/>
        </g>
        <g transform="matrix(0.87372,-2.04568e-48,-1.23021e-47,0.87372,811.887,814.578)">
            <path d="M8884,6602C8881,6593 8874,6577 8869,6568C8856,6542 8858,6530 8875,6536C8883,6540 8890,6549 8890,6556C8890,6564 8897,6573 8905,6576C8925,6584 8924,6606 8905,6614C8895,6617 8887,6613 8884,6602Z" style="fill:rgb(161,0,255);fill-opacity:0.7;fill-rule:nonzero;"/>
        </g>
        <g transform="matrix(0.87372,-2.04568e-48,-1.23021e-47,0.87372,811.887,814.578)">
            <path d="M8790,6540C8790,6527 8795,6520 8803,6523C8809,6525 8815,6533 8815,6540C8815,6547 8809,6555 8803,6558C8795,6560 8790,6553 8790,6540Z" style="fill:rgb(161,0,255);fill-opacity:0.7;fill-rule:nonzero;"/>
        </g>
        <g transform="matrix(0.87372,-2.04568e-48,-1.23021e-47,0.87372,811.887,814.578)">
            <path d="M8795,6333C8784,6330 8770,6322 8765,6315C8759,6308 8736,6300 8713,6298C8678,6294 8669,6296 8665,6311C8661,6323 8654,6327 8647,6323C8626,6310 8607,6307 8558,6308C8510,6309 8491,6294 8533,6288C8569,6283 8560,6255 8522,6255C8504,6255 8486,6249 8481,6241C8476,6233 8466,6230 8458,6233C8450,6236 8437,6234 8429,6229C8417,6221 8417,6219 8430,6211C8439,6204 8449,6205 8458,6212C8468,6221 8474,6220 8480,6211C8485,6203 8493,6201 8501,6206C8509,6210 8540,6213 8571,6212C8608,6210 8645,6216 8677,6228C8703,6239 8733,6244 8743,6241C8768,6232 8850,6252 8850,6267C8850,6273 8858,6281 8869,6285C8882,6289 8886,6297 8882,6315C8879,6336 8872,6340 8846,6339C8829,6338 8806,6336 8795,6333Z" style="fill:rgb(161,0,255);fill-opacity:0.7;fill-rule:nonzero;"/>
        </g>
        <g transform="matrix(0.87372,-2.04568e-48,-1.23021e-47,0.87372,811.887,814.578)">
            <path d="M8380,6210C8380,6199 8385,6190 8390,6190C8396,6190 8400,6199 8400,6210C8400,6221 8396,6230 8390,6230C8385,6230 8380,6221 8380,6210Z" style="fill:rgb(161,0,255);fill-opacity:0.7;fill-rule:nonzero;"/>
        </g>
        <g transform="matrix(0.87372,-2.04568e-48,-1.23021e-47,0.87372,811.887,814.578)">
            <path d="M8310,6210C8299,6203 8301,6199 8324,6191C8356,6178 8372,6184 8363,6205C8357,6222 8332,6224 8310,6210Z" style="fill:rgb(161,0,255);fill-opacity:0.7;fill-rule:nonzero;"/>
        </g>
        <g transform="matrix(0.87372,-2.04568e-48,-1.23021e-47,0.87372,811.887,814.578)">
            <path d="M7890,6290C7890,6286 7899,6280 7910,6277C7921,6274 7930,6275 7930,6280C7930,6284 7921,6290 7910,6293C7899,6296 7890,6295 7890,6290Z" style="fill:rgb(161,0,255);fill-opacity:0.7;fill-rule:nonzero;"/>
        </g>
        <g transform="matrix(0.87372,-2.04568e-48,-1.23021e-47,0.87372,811.887,814.578)">
            <path d="M7975,6250C7978,6245 7991,6240 8003,6240C8021,6240 8022,6242 8010,6250C7990,6263 7967,6263 7975,6250Z" style="fill:rgb(161,0,255);fill-opacity:0.7;fill-rule:nonzero;"/>
        </g>
        <g transform="matrix(0.87372,-2.04568e-48,-1.23021e-47,0.87372,811.887,814.578)">
            <path d="M9286,6451C9282,6444 9281,6436 9284,6433C9293,6424 9303,6437 9298,6451C9294,6462 9292,6462 9286,6451Z" style="fill:rgb(161,0,255);fill-opacity:0.7;fill-rule:nonzero;"/>
        </g>
        <g transform="matrix(0.87372,-2.04568e-48,-1.23021e-47,0.87372,811.887,814.578)">
            <path d="M5823,5874C5808,5859 5806,5840 5819,5840C5827,5840 5843,5881 5837,5886C5836,5887 5829,5882 5823,5874Z" style="fill:rgb(161,0,255);fill-opacity:0.7;fill-rule:nonzero;"/>
        </g>
        <g transform="matrix(0.87372,-2.04568e-48,-1.23021e-47,0.87372,811.887,814.578)">
            <path d="M5785,5790C5788,5785 5793,5780 5796,5780C5798,5780 5800,5785 5800,5790C5800,5796 5795,5800 5789,5800C5784,5800 5782,5796 5785,5790Z" style="fill:rgb(161,0,255);fill-opacity:0.7;fill-rule:nonzero;"/>
        </g>
        <g transform="matrix(0.87372,-2.04568e-48,-1.23021e-47,0.87372,811.887,814.578)">
            <path d="M7360,5925C7360,5917 7365,5910 7370,5910C7376,5910 7380,5917 7380,5925C7380,5933 7376,5940 7370,5940C7365,5940 7360,5933 7360,5925Z" style="fill:rgb(161,0,255);fill-opacity:0.7;fill-rule:nonzero;"/>
        </g>
        <g transform="matrix(0.87372,-2.04568e-48,-1.23021e-47,0.87372,811.887,814.578)">
            <path d="M5598,4683C5589,4673 5582,4650 5582,4632C5582,4614 5576,4592 5569,4583C5557,4570 5555,4570 5549,4587C5543,4602 5541,4600 5541,4579C5540,4565 5531,4545 5520,4535C5503,4520 5496,4519 5474,4529C5459,4535 5445,4539 5443,4536C5433,4527 5466,4475 5489,4464C5502,4457 5519,4439 5526,4423C5532,4408 5552,4380 5570,4361C5607,4322 5626,4329 5608,4377C5597,4406 5599,4410 5626,4434C5655,4459 5655,4460 5633,4466C5586,4479 5580,4572 5620,4651C5645,4698 5630,4719 5598,4683Z" style="fill:rgb(161,0,255);fill-opacity:0.7;fill-rule:nonzero;"/>
        </g>
        <g transform="matrix(0.87372,-2.04568e-48,-1.23021e-47,0.87372,811.887,814.578)">
            <path d="M7185,4650C7181,4644 7190,4640 7205,4640C7220,4640 7229,4644 7225,4650C7222,4656 7213,4660 7205,4660C7197,4660 7188,4656 7185,4650Z" style="fill:rgb(161,0,255);fill-opacity:0.7;fill-rule:nonzero;"/>
        </g>
        <g transform="matrix(0.87372,-2.04568e-48,-1.23021e-47,0.87372,811.887,814.578)">
            <path d="M8895,3559C8891,3553 8890,3547 8893,3544C8900,3537 8930,3551 8930,3561C8930,3574 8903,3572 8895,3559Z" style="fill:rgb(161,0,255);fill-opacity:0.7;fill-rule:nonzero;"/>
        </g>
        <g transform="matrix(0.87372,-2.04568e-48,-1.23021e-47,0.87372,811.887,814.578)">
            <path d="M6940,10562C6948,10557 6982,10550 7015,10546C7090,10539 7058,10555 6980,10564C6945,10568 6930,10567 6940,10562Z" style="fill:rgb(161,0,255);fill-opacity:0.7;fill-rule:nonzero;"/>
        </g>
        <g transform="matrix(0.87372,-2.04568e-48,-1.23021e-47,0.87372,811.887,814.578)">
            <path d="M7395,10461C7423,10456 7461,10450 7480,10446C7510,10441 7512,10441 7491,10450C7477,10456 7439,10463 7406,10465C7345,10469 7345,10469 7395,10461Z" style="fill:rgb(161,0,255);fill-opacity:0.7;fill-rule:nonzero;"/>
        </g>
        <g transform="matrix(0.87372,-2.04568e-48,-1.23021e-47,0.87372,811.887,814.578)">
            <path d="M3295,3860C3305,3849 3315,3840 3318,3840C3321,3840 3315,3849 3305,3860C3295,3871 3285,3880 3282,3880C3279,3880 3285,3871 3295,3860Z" style="fill:rgb(161,0,255);fill-opacity:0.7;fill-rule:nonzero;"/>
        </g>
        <g transform="matrix(0.87372,-2.04568e-48,-1.23021e-47,0.87372,811.887,814.578)">
            <path d="M3345,3800C3355,3789 3365,3780 3368,3780C3371,3780 3365,3789 3355,3800C3345,3811 3335,3820 3332,3820C3329,3820 3335,3811 3345,3800Z" style="fill:rgb(161,0,255);fill-opacity:0.7;fill-rule:nonzero;"/>
        </g>
        <g transform="matrix(0.87372,-2.04568e-48,-1.23021e-47,0.87372,811.887,814.578)">
            <path d="M3370,3766C3370,3764 3378,3756 3388,3749C3403,3736 3404,3737 3391,3753C3378,3769 3370,3774 3370,3766Z" style="fill:rgb(161,0,255);fill-opacity:0.7;fill-rule:nonzero;"/>
        </g>
        <g transform="matrix(0.87372,-2.04568e-48,-1.23021e-47,0.87372,811.887,814.578)">
            <path d="M9319,3603L9285,3565L9323,3599C9343,3618 9360,3635 9360,3637C9360,3645 9352,3637 9319,3603Z" style="fill:rgb(161,0,255);fill-opacity:0.7;fill-rule:nonzero;"/>
        </g>
        <g transform="matrix(0.87372,-2.04568e-48,-1.23021e-47,0.87372,811.887,814.578)">
            <path d="M3640,3475C3653,3461 3666,3450 3668,3450C3671,3450 3663,3461 3650,3475C3637,3489 3624,3500 3622,3500C3619,3500 3627,3489 3640,3475Z" style="fill:rgb(161,0,255);fill-opacity:0.7;fill-rule:nonzero;"/>
        </g>
        <g transform="matrix(0.87372,-2.04568e-48,-1.23021e-47,0.87372,811.887,814.578)">
            <path d="M9169,3453C9156,3437 9157,3436 9173,3449C9182,3456 9190,3464 9190,3466C9190,3474 9182,3469 9169,3453Z" style="fill:rgb(161,0,255);fill-opacity:0.7;fill-rule:nonzero;"/>
        </g>
    </g>
    <g transform="matrix(0.87372,0,0,0.32508,101.024,269.968)">
        <rect x="0" y="0" width="1600" height="800"/>
    </g>
    <g transform="matrix(0.791827,0,0,0.791827,55.661,-44.9617)">
        <g transform="matrix(0.253934,0,-0.0467935,0.206686,204.51,389.817)">
            <rect x="393.826" y="203.404" width="641.427" height="634.09" style="fill:rgb(0,255,255);"/>
        </g>
        <g transform="matrix(7.83186,0,0,7.80107,-4600.55,-3761.77)">
            <g>
                <g transform="matrix(1,0,0,1,649.111,554.246)">
                    <g transform="matrix(24,0,0,24,0,0)">
                        <path d="M0.257,-0.517L0.052,-0.517L0.089,-0.7L0.735,-0.7L0.698,-0.517L0.493,-0.517L0.39,-0L0.154,-0L0.257,-0.517Z" style="fill:rgb(0,255,255);fill-rule:nonzero;"/>
                    </g>
                    <g transform="matrix(24,0,0,24,15.696,0)">
                        <path d="M0.747,-0.47C0.747,-0.408 0.731,-0.354 0.698,-0.308C0.665,-0.261 0.618,-0.227 0.558,-0.204L0.675,-0L0.43,-0L0.331,-0.176L0.273,-0.176L0.238,-0L0.002,-0L0.142,-0.7L0.456,-0.7C0.548,-0.7 0.619,-0.68 0.671,-0.64C0.721,-0.599 0.747,-0.543 0.747,-0.47ZM0.508,-0.447C0.508,-0.494 0.479,-0.518 0.42,-0.518L0.341,-0.518L0.308,-0.354L0.405,-0.354C0.438,-0.354 0.463,-0.362 0.481,-0.379C0.499,-0.395 0.508,-0.418 0.508,-0.447Z" style="fill:rgb(0,255,255);fill-rule:nonzero;"/>
                    </g>
                    <g transform="matrix(24,0,0,24,33.576,0)">
                        <path d="M0.142,-0.7L0.378,-0.7L0.238,-0L0.002,-0L0.142,-0.7Z" style="fill:rgb(0,255,255);fill-rule:nonzero;"/>
                    </g>
                    <g transform="matrix(24,0,0,24,41.976,0)">
                        <path d="M0.453,-0.7C0.546,-0.7 0.619,-0.68 0.67,-0.639C0.721,-0.598 0.747,-0.541 0.747,-0.468C0.747,-0.409 0.732,-0.358 0.704,-0.313C0.675,-0.268 0.633,-0.234 0.58,-0.209C0.526,-0.184 0.464,-0.172 0.393,-0.172L0.272,-0.172L0.238,-0L0.002,-0L0.142,-0.7L0.453,-0.7ZM0.405,-0.354C0.438,-0.354 0.463,-0.362 0.481,-0.379C0.499,-0.395 0.508,-0.418 0.508,-0.447C0.508,-0.494 0.479,-0.518 0.42,-0.518L0.341,-0.518L0.308,-0.354L0.405,-0.354Z" style="fill:rgb(0,255,255);fill-rule:nonzero;"/>
                    </g>
                </g>
                <g transform="matrix(1,0,0,1,708.679,554.246)">
                    <g transform="matrix(24,0,0,24,0,0)">
                        <path d="M0.142,-0.7L0.378,-0.7L0.275,-0.183L0.591,-0.183L0.554,-0L0.002,-0L0.142,-0.7Z" style="fill:rgb(0,255,255);fill-rule:nonzero;"/>
                    </g>
                    <g transform="matrix(24,0,0,24,14.808,0)">
                        <path d="M0.338,-0.522L0.322,-0.44L0.618,-0.44L0.584,-0.27L0.287,-0.27L0.269,-0.178L0.62,-0.178L0.584,-0L0.002,-0L0.142,-0.7L0.711,-0.7L0.675,-0.522L0.338,-0.522Z" style="fill:rgb(0,255,255);fill-rule:nonzero;"/>
                    </g>
                    <g transform="matrix(24,0,0,24,30.96,0)">
                        <path d="M0.639,-0.36C0.669,-0.347 0.692,-0.329 0.709,-0.306C0.725,-0.283 0.733,-0.255 0.733,-0.223C0.733,-0.149 0.703,-0.093 0.642,-0.056C0.581,-0.019 0.502,-0 0.406,-0L0.002,-0L0.142,-0.7L0.513,-0.7C0.595,-0.7 0.657,-0.686 0.7,-0.657C0.743,-0.627 0.764,-0.586 0.764,-0.533C0.764,-0.494 0.753,-0.459 0.731,-0.43C0.709,-0.4 0.678,-0.377 0.639,-0.36ZM0.341,-0.535L0.32,-0.431L0.44,-0.431C0.492,-0.431 0.518,-0.451 0.518,-0.492C0.518,-0.506 0.513,-0.517 0.502,-0.524C0.491,-0.531 0.476,-0.535 0.456,-0.535L0.341,-0.535ZM0.419,-0.165C0.443,-0.165 0.462,-0.171 0.477,-0.182C0.492,-0.193 0.499,-0.208 0.499,-0.229C0.499,-0.244 0.494,-0.255 0.483,-0.263C0.472,-0.271 0.458,-0.275 0.441,-0.275L0.289,-0.275L0.267,-0.165L0.419,-0.165Z" style="fill:rgb(0,255,255);fill-rule:nonzero;"/>
                    </g>
                    <g transform="matrix(24,0,0,24,49.512,0)">
                        <path d="M0.142,-0.7L0.378,-0.7L0.238,-0L0.002,-0L0.142,-0.7Z" style="fill:rgb(0,255,255);fill-rule:nonzero;"/>
                    </g>
                    <g transform="matrix(24,0,0,24,57.912,0)">
                        <path d="M0.257,-0.517L0.052,-0.517L0.089,-0.7L0.735,-0.7L0.698,-0.517L0.493,-0.517L0.39,-0L0.154,-0L0.257,-0.517Z" style="fill:rgb(0,255,255);fill-rule:nonzero;"/>
                    </g>
                </g>
            </g>
        </g>
        <g transform="matrix(7.83186,0,0,7.80107,-4539.06,-3629.74)">
            <g>
                <g transform="matrix(1,0,0,1,649.111,554.246)">
                    <g transform="matrix(24,0,0,24,0,0)">
                        <path d="M0.257,-0.517L0.052,-0.517L0.089,-0.7L0.735,-0.7L0.698,-0.517L0.493,-0.517L0.39,-0L0.154,-0L0.257,-0.517Z" style="fill:rgb(255,0,0);fill-rule:nonzero;"/>
                    </g>
                    <g transform="matrix(24,0,0,24,15.696,0)">
                        <path d="M0.747,-0.47C0.747,-0.408 0.731,-0.354 0.698,-0.308C0.665,-0.261 0.618,-0.227 0.558,-0.204L0.675,-0L0.43,-0L0.331,-0.176L0.273,-0.176L0.238,-0L0.002,-0L0.142,-0.7L0.456,-0.7C0.548,-0.7 0.619,-0.68 0.671,-0.64C0.721,-0.599 0.747,-0.543 0.747,-0.47ZM0.508,-0.447C0.508,-0.494 0.479,-0.518 0.42,-0.518L0.341,-0.518L0.308,-0.354L0.405,-0.354C0.438,-0.354 0.463,-0.362 0.481,-0.379C0.499,-0.395 0.508,-0.418 0.508,-0.447Z" style="fill:rgb(255,0,0);fill-rule:nonzero;"/>
                    </g>
                    <g transform="matrix(24,0,0,24,33.576,0)">
                        <path d="M0.142,-0.7L0.378,-0.7L0.238,-0L0.002,-0L0.142,-0.7Z" style="fill:rgb(255,0,0);fill-rule:nonzero;"/>
                    </g>
                    <g transform="matrix(24,0,0,24,41.976,0)">
                        <path d="M0.453,-0.7C0.546,-0.7 0.619,-0.68 0.67,-0.639C0.721,-0.598 0.747,-0.541 0.747,-0.468C0.747,-0.409 0.732,-0.358 0.704,-0.313C0.675,-0.268 0.633,-0.234 0.58,-0.209C0.526,-0.184 0.464,-0.172 0.393,-0.172L0.272,-0.172L0.238,-0L0.002,-0L0.142,-0.7L0.453,-0.7ZM0.405,-0.354C0.438,-0.354 0.463,-0.362 0.481,-0.379C0.499,-0.395 0.508,-0.418 0.508,-0.447C0.508,-0.494 0.479,-0.518 0.42,-0.518L0.341,-0.518L0.308,-0.354L0.405,-0.354Z" style="fill:rgb(255,0,0);fill-rule:nonzero;"/>
                    </g>
                </g>
                <g transform="matrix(1,0,0,1,708.679,554.246)">
                    <g transform="matrix(24,0,0,24,0,0)">
                        <path d="M0.142,-0.7L0.378,-0.7L0.275,-0.183L0.591,-0.183L0.554,-0L0.002,-0L0.142,-0.7Z" style="fill:rgb(255,0,0);fill-rule:nonzero;"/>
                    </g>
                    <g transform="matrix(24,0,0,24,14.808,0)">
                        <path d="M0.338,-0.522L0.322,-0.44L0.618,-0.44L0.584,-0.27L0.287,-0.27L0.269,-0.178L0.62,-0.178L0.584,-0L0.002,-0L0.142,-0.7L0.711,-0.7L0.675,-0.522L0.338,-0.522Z" style="fill:rgb(255,0,0);fill-rule:nonzero;"/>
                    </g>
                    <g transform="matrix(24,0,0,24,30.96,0)">
                        <path d="M0.639,-0.36C0.669,-0.347 0.692,-0.329 0.709,-0.306C0.725,-0.283 0.733,-0.255 0.733,-0.223C0.733,-0.149 0.703,-0.093 0.642,-0.056C0.581,-0.019 0.502,-0 0.406,-0L0.002,-0L0.142,-0.7L0.513,-0.7C0.595,-0.7 0.657,-0.686 0.7,-0.657C0.743,-0.627 0.764,-0.586 0.764,-0.533C0.764,-0.494 0.753,-0.459 0.731,-0.43C0.709,-0.4 0.678,-0.377 0.639,-0.36ZM0.341,-0.535L0.32,-0.431L0.44,-0.431C0.492,-0.431 0.518,-0.451 0.518,-0.492C0.518,-0.506 0.513,-0.517 0.502,-0.524C0.491,-0.531 0.476,-0.535 0.456,-0.535L0.341,-0.535ZM0.419,-0.165C0.443,-0.165 0.462,-0.171 0.477,-0.182C0.492,-0.193 0.499,-0.208 0.499,-0.229C0.499,-0.244 0.494,-0.255 0.483,-0.263C0.472,-0.271 0.458,-0.275 0.441,-0.275L0.289,-0.275L0.267,-0.165L0.419,-0.165Z" style="fill:rgb(255,0,0);fill-rule:nonzero;"/>
                    </g>
                    <g transform="matrix(24,0,0,24,49.512,0)">
                        <path d="M0.142,-0.7L0.378,-0.7L0.238,-0L0.002,-0L0.142,-0.7Z" style="fill:rgb(255,0,0);fill-rule:nonzero;"/>
                    </g>
                    <g transform="matrix(24,0,0,24,57.912,0)">
                        <path d="M0.257,-0.517L0.052,-0.517L0.089,-0.7L0.735,-0.7L0.698,-0.517L0.493,-0.517L0.39,-0L0.154,-0L0.257,-0.517Z" style="fill:rgb(255,0,0);fill-rule:nonzero;"/>
                    </g>
                </g>
            </g>
        </g>
        <g transform="matrix(0.69259,0,0,0.19118,506.585,485.471)">
            <rect x="0" y="0" width="1600" height="800"/>
        </g>
        <g transform="matrix(0.253934,0,-0.0466861,0.206686,274.052,520.875)">
            <rect x="393.826" y="203.404" width="641.427" height="634.09" style="fill:rgb(255,0,0);"/>
        </g>
        <g transform="matrix(0.253934,0,-0.0467935,0.206686,239.309,455.346)">
            <rect x="393.826" y="203.404" width="641.427" height="634.09" style="fill:white;"/>
        </g>
        <g transform="matrix(7.83186,0,0,7.80107,-4566.07,-3695.27)">
            <g>
                <g transform="matrix(1,0,0,1,649.111,554.246)">
                    <g transform="matrix(24,0,0,24,0,0)">
                        <path d="M0.257,-0.517L0.052,-0.517L0.089,-0.7L0.735,-0.7L0.698,-0.517L0.493,-0.517L0.39,-0L0.154,-0L0.257,-0.517Z" style="fill:white;fill-rule:nonzero;"/>
                    </g>
                    <g transform="matrix(24,0,0,24,15.696,0)">
                        <path d="M0.747,-0.47C0.747,-0.408 0.731,-0.354 0.698,-0.308C0.665,-0.261 0.618,-0.227 0.558,-0.204L0.675,-0L0.43,-0L0.331,-0.176L0.273,-0.176L0.238,-0L0.002,-0L0.142,-0.7L0.456,-0.7C0.548,-0.7 0.619,-0.68 0.671,-0.64C0.721,-0.599 0.747,-0.543 0.747,-0.47ZM0.508,-0.447C0.508,-0.494 0.479,-0.518 0.42,-0.518L0.341,-0.518L0.308,-0.354L0.405,-0.354C0.438,-0.354 0.463,-0.362 0.481,-0.379C0.499,-0.395 0.508,-0.418 0.508,-0.447Z" style="fill:white;fill-rule:nonzero;"/>
                    </g>
                    <g transform="matrix(24,0,0,24,33.576,0)">
                        <path d="M0.142,-0.7L0.378,-0.7L0.238,-0L0.002,-0L0.142,-0.7Z" style="fill:white;fill-rule:nonzero;"/>
                    </g>
                    <g transform="matrix(24,0,0,24,41.976,0)">
                        <path d="M0.453,-0.7C0.546,-0.7 0.619,-0.68 0.67,-0.639C0.721,-0.598 0.747,-0.541 0.747,-0.468C0.747,-0.409 0.732,-0.358 0.704,-0.313C0.675,-0.268 0.633,-0.234 0.58,-0.209C0.526,-0.184 0.464,-0.172 0.393,-0.172L0.272,-0.172L0.238,-0L0.002,-0L0.142,-0.7L0.453,-0.7ZM0.405,-0.354C0.438,-0.354 0.463,-0.362 0.481,-0.379C0.499,-0.395 0.508,-0.418 0.508,-0.447C0.508,-0.494 0.479,-0.518 0.42,-0.518L0.341,-0.518L0.308,-0.354L0.405,-0.354Z" style="fill:white;fill-rule:nonzero;"/>
                    </g>
                </g>
                <g transform="matrix(1,0,0,1,708.679,554.246)">
                    <g transform="matrix(24,0,0,24,0,0)">
                        <path d="M0.142,-0.7L0.378,-0.7L0.275,-0.183L0.591,-0.183L0.554,-0L0.002,-0L0.142,-0.7Z" style="fill:white;fill-rule:nonzero;"/>
                    </g>
                    <g transform="matrix(24,0,0,24,14.808,0)">
                        <path d="M0.338,-0.522L0.322,-0.44L0.618,-0.44L0.584,-0.27L0.287,-0.27L0.269,-0.178L0.62,-0.178L0.584,-0L0.002,-0L0.142,-0.7L0.711,-0.7L0.675,-0.522L0.338,-0.522Z" style="fill:white;fill-rule:nonzero;"/>
                    </g>
                    <g transform="matrix(24,0,0,24,30.96,0)">
                        <path d="M0.639,-0.36C0.669,-0.347 0.692,-0.329 0.709,-0.306C0.725,-0.283 0.733,-0.255 0.733,-0.223C0.733,-0.149 0.703,-0.093 0.642,-0.056C0.581,-0.019 0.502,-0 0.406,-0L0.002,-0L0.142,-0.7L0.513,-0.7C0.595,-0.7 0.657,-0.686 0.7,-0.657C0.743,-0.627 0.764,-0.586 0.764,-0.533C0.764,-0.494 0.753,-0.459 0.731,-0.43C0.709,-0.4 0.678,-0.377 0.639,-0.36ZM0.341,-0.535L0.32,-0.431L0.44,-0.431C0.492,-0.431 0.518,-0.451 0.518,-0.492C0.518,-0.506 0.513,-0.517 0.502,-0.524C0.491,-0.531 0.476,-0.535 0.456,-0.535L0.341,-0.535ZM0.419,-0.165C0.443,-0.165 0.462,-0.171 0.477,-0.182C0.492,-0.193 0.499,-0.208 0.499,-0.229C0.499,-0.244 0.494,-0.255 0.483,-0.263C0.472,-0.271 0.458,-0.275 0.441,-0.275L0.289,-0.275L0.267,-0.165L0.419,-0.165Z" style="fill:white;fill-rule:nonzero;"/>
                    </g>
                    <g transform="matrix(24,0,0,24,49.512,0)">
                        <path d="M0.142,-0.7L0.378,-0.7L0.238,-0L0.002,-0L0.142,-0.7Z" style="fill:white;fill-rule:nonzero;"/>
                    </g>
                    <g transform="matrix(24,0,0,24,57.912,0)">
                        <path d="M0.257,-0.517L0.052,-0.517L0.089,-0.7L0.735,-0.7L0.698,-0.517L0.493,-0.517L0.39,-0L0.154,-0L0.257,-0.517Z" style="fill:white;fill-rule:nonzero;"/>
                    </g>
                </g>
            </g>
        </g>
    </g>
</svg>
